<svg width="22" height="22" viewBox="0 0 22 22" fill="none" xmlns="http://www.w3.org/2000/svg">
<path d="M13.2277 17.2517C13.0535 17.2517 12.8794 17.1875 12.7419 17.05C12.476 16.7842 12.476 16.3442 12.7419 16.0783L17.8202 11L12.7419 5.92165C12.476 5.65582 12.476 5.21582 12.7419 4.94999C13.0077 4.68415 13.4477 4.68415 13.7135 4.94999L19.2777 10.5142C19.5435 10.78 19.5435 11.22 19.2777 11.4858L13.7135 17.05C13.576 17.1875 13.4019 17.2517 13.2277 17.2517Z" fill="white"/>
<path d="M18.636 11.6875H3.2085C2.83266 11.6875 2.521 11.3758 2.521 11C2.521 10.6242 2.83266 10.3125 3.2085 10.3125H18.636C19.0118 10.3125 19.3235 10.6242 19.3235 11C19.3235 11.3758 19.0118 11.6875 18.636 11.6875Z" fill="white"/>
</svg>
