<svg width="24" height="24" viewBox="0 0 24 24" fill="none" xmlns="http://www.w3.org/2000/svg">
<rect width="24" height="24" transform="matrix(-1 0 0 1 24 0)" fill="white"/>
<path d="M9 22.75H15C20.43 22.75 22.75 20.43 22.75 15V9C22.75 3.57 20.43 1.25 15 1.25H9C3.57 1.25 1.25 3.57 1.25 9V15C1.25 20.43 3.57 22.75 9 22.75ZM15 2.75C19.61 2.75 21.25 4.39 21.25 9V15C21.25 19.61 19.61 21.25 15 21.25H9C4.39 21.25 2.75 19.61 2.75 15V9C2.75 4.39 4.39 2.75 9 2.75H15Z" fill="#7C8798"/>
<path d="M13.2603 16.28C13.4503 16.28 13.6403 16.21 13.7903 16.06C14.0803 15.77 14.0803 15.29 13.7903 15L10.7903 12L13.7903 8.99997C14.0803 8.70997 14.0803 8.22997 13.7903 7.93997C13.5003 7.64997 13.0203 7.64997 12.7303 7.93997L9.20031 11.47C8.91031 11.76 8.91031 12.24 9.20031 12.53L12.7303 16.06C12.8803 16.21 13.0703 16.28 13.2603 16.28Z" fill="#7C8798"/>
</svg>
