<svg width="50" height="50" viewBox="0 0 50 50" fill="none" xmlns="http://www.w3.org/2000/svg">
<rect width="50" height="50" rx="4" fill="#5F76E8"/>
<path d="M37.0176 35.3154V36.5342H34V34.7471C34 34.5889 33.8711 34.46 33.7129 34.46C33.5547 34.46 33.4258 34.5889 33.4258 34.7471V36.5342H26.6043L25.9492 32.6318L26.2352 31.624L26.7461 31.9873C26.8516 32.0752 26.9805 32.1221 27.1152 32.1221C27.1562 32.1221 27.2031 32.1162 27.2559 32.1045C27.4316 32.0635 27.5781 31.958 27.6543 31.7998L29.2662 29.4092L33.1797 30.3936C35.4414 30.9619 37.0176 32.9893 37.0176 35.3154ZM31.7559 33.9092V33.042C31.7559 32.8018 31.5508 32.5967 31.3105 32.5967H28.9199C28.6797 32.5967 28.4746 32.8018 28.4746 33.042V33.9092C28.4746 34.1494 28.6797 34.3545 28.9199 34.3545H31.3105C31.5566 34.3545 31.7559 34.1553 31.7559 33.9092Z" fill="white"/>
<path d="M29.049 33.165H31.1818V33.7861H29.049V33.165ZM30.0715 15.3309C30.5812 15.5646 30.9809 15.7568 31.1994 15.8623C30.9867 16.2977 30.7992 16.6627 30.6357 16.9668C30.249 16.6762 30.0158 16.2209 30.0158 15.7275C30.0158 15.5945 30.0346 15.4615 30.0715 15.3309ZM30.3539 17.4754C30.092 17.9307 29.9215 18.1773 29.8336 18.2939H20.1621C20.0736 18.1744 19.9037 17.9277 19.6465 17.4777C20.2049 17.0811 20.5412 16.4424 20.5412 15.7451C20.5412 15.526 20.5078 15.3127 20.4422 15.107C21.777 14.5129 23.6197 13.7605 25.0002 13.4658C26.376 13.7506 28.2006 14.4941 29.5471 15.0936C29.4814 15.2998 29.4475 15.5137 29.4475 15.7334C29.4475 16.4406 29.7885 17.084 30.3539 17.4754ZM26.26 15.7686V15.1885C26.26 15.0713 26.1896 14.9717 26.0783 14.9248L25.1057 14.5498C25.0354 14.5205 24.965 14.5205 24.8947 14.5498L23.9221 14.9248C23.8107 14.9658 23.7404 15.0713 23.7404 15.1885V15.7686C23.7404 16.5068 24.1271 17.0986 24.8654 17.4736C24.9064 17.4971 24.9475 17.5088 24.9943 17.5088C25.0412 17.5088 25.0822 17.4971 25.135 17.4736C25.8732 17.1045 26.26 16.5127 26.26 15.7686ZM29.6139 19.873L29.4826 22.4775C29.4141 24.032 28.5598 25.3691 27.3105 26.1174C26.6338 26.5223 25.841 26.7549 24.9943 26.7549C24.1699 26.7549 23.3953 26.5334 22.7297 26.1455C22.7127 26.132 22.6939 26.1209 22.674 26.1121C22.391 25.9422 22.1285 25.7418 21.8912 25.515C21.0832 24.7451 20.5617 23.6758 20.5061 22.4775L20.366 19.6961C20.6484 20.0037 21.0129 20.2973 21.4377 20.5498C22.4514 21.1592 23.7111 21.4932 24.9943 21.4932C27.1172 21.4932 28.7449 20.9049 29.6139 19.873Z" fill="white"/>
<path d="M20.4537 18.874H29.5721C29.026 20.1596 27.3525 20.9131 25 20.9131C22.7383 20.9131 20.991 19.8197 20.4537 18.874ZM27.1621 26.8451V28.5004L24.9994 30.0443L22.8437 28.5109V26.8527C23.4971 27.1586 24.226 27.3291 24.9941 27.3291C25.7693 27.3291 26.5047 27.1562 27.1621 26.8451ZM27.0801 31.5244L26.2363 30.9238L25.4951 30.3971L27.4967 28.9645L28.6744 29.2604L27.168 31.4951C27.1562 31.5068 27.1504 31.5244 27.1445 31.5361C27.1445 31.5361 27.1387 31.5479 27.127 31.5479C27.1152 31.5479 27.1035 31.542 27.1035 31.542C27.0918 31.5361 27.0859 31.5303 27.0801 31.5244ZM25.4084 32.8955L26.0201 36.5342H23.9588L24.6408 32.8955H25.4084ZM25.0035 30.748L25.7348 31.2684L25.4365 32.3213H24.6145L24.2939 31.2537L25.0035 30.748ZM25.6797 15.3877V15.7686C25.6797 16.2432 25.4512 16.624 24.9941 16.8936C24.5371 16.624 24.3086 16.249 24.3086 15.7686V15.3877L24.9941 15.124L25.6797 15.3877ZM22.8496 31.5361L22.832 31.501L21.3168 29.2639L22.498 28.9668L24.5072 30.3953L23.79 30.9074L22.9082 31.5361C22.9023 31.542 22.8965 31.542 22.8906 31.5479C22.8848 31.5537 22.873 31.5537 22.8672 31.5537C22.8555 31.5479 22.8555 31.542 22.8496 31.5361ZM18.8066 33.165H20.9395V33.7861H18.8066V33.165ZM19.9182 15.3432C19.9545 15.4715 19.9727 15.6045 19.9727 15.7393C19.9727 16.2268 19.7447 16.6814 19.3662 16.9709C19.2039 16.6674 19.0176 16.3029 18.8066 15.8682C18.9854 15.7814 19.3855 15.5875 19.9182 15.3432Z" fill="white"/>
<path d="M23.8006 31.6053L24.1094 32.626L23.3752 36.5342H16.5625V34.7471C16.5625 34.5889 16.4336 34.46 16.2754 34.46C16.1172 34.46 15.9883 34.5889 15.9883 34.7471V36.5342H12.9824V35.3154C12.9824 32.9893 14.5645 30.9619 16.8203 30.3936L20.725 29.4127L22.3516 31.8115C22.4336 31.9639 22.5801 32.0693 22.75 32.1104C22.7969 32.1162 22.832 32.1221 22.8789 32.1221C23.0137 32.1221 23.1426 32.0869 23.248 31.999L23.8006 31.6053ZM21.5137 33.9092V33.042C21.5137 32.8018 21.3086 32.5967 21.0684 32.5967H18.6777C18.4375 32.5967 18.2324 32.8018 18.2324 33.042V33.9092C18.2324 34.1494 18.4375 34.3545 18.6777 34.3545H21.0625C21.3145 34.3545 21.5078 34.1553 21.5137 33.9092Z" fill="white"/>
</svg>
