<svg width="16" height="17" viewBox="0 0 16 17" fill="none" xmlns="http://www.w3.org/2000/svg">
<path fill-rule="evenodd" clip-rule="evenodd" d="M7.33314 1.44553H4.0045V0.838327C4.0045 0.661553 3.93428 0.492019 3.80928 0.367021C3.68428 0.242023 3.51475 0.171799 3.33797 0.171799C3.1612 0.171799 2.99166 0.242023 2.86667 0.367021C2.74167 0.492019 2.67144 0.661553 2.67144 0.838327V1.44553H1.99958C1.46926 1.44553 0.960659 1.6562 0.585665 2.0312C0.21067 2.40619 0 2.91479 0 3.44512V14.1409C0 14.6712 0.21067 15.1798 0.585665 15.5548C0.960659 15.9298 1.46926 16.1405 1.99958 16.1405H13.9998C14.5303 16.1405 15.0389 15.9298 15.4135 15.5546C15.5993 15.369 15.7467 15.1487 15.8472 14.9061C15.9477 14.6635 15.9994 14.4035 15.9993 14.1409V3.44512C15.9993 2.91456 15.7887 2.406 15.4135 2.03141C15.2279 1.8456 15.0075 1.69821 14.765 1.59768C14.5224 1.49715 14.2623 1.44544 13.9998 1.44553H13.3359V0.807C13.3359 0.630226 13.2657 0.460692 13.1407 0.335694C13.0157 0.210696 12.8461 0.140472 12.6694 0.140472C12.4926 0.140472 12.3231 0.210696 12.1981 0.335694C12.0731 0.460692 12.0028 0.630226 12.0028 0.807V1.44553H8.66619V0.807C8.66619 0.630226 8.59597 0.460692 8.47097 0.335694C8.34597 0.210696 8.17644 0.140472 7.99967 0.140472C7.82289 0.140472 7.65336 0.210696 7.52836 0.335694C7.40336 0.460692 7.33314 0.630226 7.33314 0.807V1.44553ZM14.6663 6.81175V14.1409C14.6665 14.2285 14.6495 14.3153 14.6161 14.3963C14.5827 14.4773 14.5336 14.5508 14.4716 14.6128C14.4097 14.6747 14.3361 14.7238 14.2551 14.7572C14.1741 14.7906 14.0874 14.8077 13.9998 14.8074H1.99958C1.91198 14.8077 1.82519 14.7906 1.7442 14.7572C1.66322 14.7238 1.58963 14.6747 1.52769 14.6128C1.46574 14.5508 1.41666 14.4773 1.38325 14.3963C1.34985 14.3153 1.33279 14.2285 1.33306 14.1409V6.81175H14.6663ZM13.3359 2.77859V3.47045C13.3359 3.64722 13.2657 3.81675 13.1407 3.94175C13.0157 4.06675 12.8461 4.13697 12.6694 4.13697C12.4926 4.13697 12.3231 4.06675 12.1981 3.94175C12.0731 3.81675 12.0028 3.64722 12.0028 3.47045V2.77859H8.66619V3.49844C8.66619 3.67521 8.59597 3.84475 8.47097 3.96975C8.34597 4.09474 8.17644 4.16497 7.99967 4.16497C7.82289 4.16497 7.65336 4.09474 7.52836 3.96975C7.40336 3.84475 7.33314 3.67521 7.33314 3.49844V2.77859H4.0045V3.49844C4.0045 3.67521 3.93428 3.84475 3.80928 3.96975C3.68428 4.09474 3.51475 4.16497 3.33797 4.16497C3.1612 4.16497 2.99166 4.09474 2.86667 3.96975C2.74167 3.84475 2.67144 3.67521 2.67144 3.49844V2.77859H1.99958C1.91198 2.77833 1.82519 2.79539 1.7442 2.82879C1.66322 2.86219 1.58963 2.91128 1.52769 2.97322C1.46574 3.03517 1.41666 3.10875 1.38325 3.18974C1.34985 3.27072 1.33279 3.35751 1.33306 3.44512V5.47869H14.6663V3.44512C14.6665 3.35751 14.6495 3.27072 14.6161 3.18974C14.5827 3.10875 14.5336 3.03517 14.4716 2.97322C14.4097 2.91128 14.3361 2.86219 14.2551 2.82879C14.1741 2.79539 14.0874 2.77833 13.9998 2.77859H13.3359Z" fill="#5F76E8"/>
<path fill-rule="evenodd" clip-rule="evenodd" d="M3.33789 8.7933H4.67095V10.1264H3.33789V8.7933ZM3.33789 11.4714H4.67095V12.8045H3.33789V11.4714ZM6.004 8.7933H7.33706V10.1264H6.004V8.7933ZM6.004 11.4714H7.33706V12.8045H6.004V11.4714ZM8.67011 8.7933H10.0032V10.1264H8.67011V8.7933ZM8.67011 11.4714H10.0032V12.8045H8.67011V11.4714ZM11.3362 8.7933H12.6693V10.1264H11.3362V8.7933ZM11.3362 11.4714H12.6693V12.8045H11.3362V11.4714Z" fill="#5F76E8"/>
</svg>
