<svg width="18" height="19" viewBox="0 0 18 19" fill="none" xmlns="http://www.w3.org/2000/svg">
<path d="M5.25 3.89047C5.25 3.44547 5.11804 3.01045 4.87081 2.64044C4.62357 2.27043 4.27217 1.98204 3.86104 1.81174C3.4499 1.64145 2.9975 1.59689 2.56105 1.68371C2.12459 1.77052 1.72368 1.98482 1.40901 2.29948C1.09434 2.61415 0.880049 3.01506 0.793232 3.45152C0.706417 3.88798 0.750973 4.34038 0.92127 4.75151C1.09157 5.16264 1.37996 5.51405 1.74997 5.76128C2.11998 6.00851 2.55499 6.14047 3 6.14047C3.59674 6.14047 4.16903 5.90342 4.59099 5.48146C5.01295 5.05951 5.25 4.48721 5.25 3.89047ZM16.5 4.64047H7.5C7.30109 4.64047 7.11032 4.56146 6.96967 4.4208C6.82902 4.28015 6.75 4.08939 6.75 3.89047C6.75 3.69156 6.82902 3.5008 6.96967 3.36014C7.11032 3.21949 7.30109 3.14047 7.5 3.14047H16.5C16.6989 3.14047 16.8897 3.21949 17.0303 3.36014C17.171 3.5008 17.25 3.69156 17.25 3.89047C17.25 4.08939 17.171 4.28015 17.0303 4.4208C16.8897 4.56146 16.6989 4.64047 16.5 4.64047ZM12 6.89047C12.4642 6.89178 12.9167 7.03663 13.2953 7.30518C13.6739 7.57372 13.9603 7.95281 14.115 8.39047H16.5C16.6989 8.39047 16.8897 8.46949 17.0303 8.61014C17.171 8.75079 17.25 8.94156 17.25 9.14047C17.25 9.33939 17.171 9.53015 17.0303 9.6708C16.8897 9.81145 16.6989 9.89047 16.5 9.89047H14.115C13.9774 10.2796 13.7354 10.6234 13.4155 10.8843C13.0956 11.1451 12.7101 11.3129 12.3012 11.3693C11.8923 11.4258 11.4758 11.3686 11.0972 11.2042C10.7186 11.0397 10.3926 10.7743 10.1547 10.4369C9.9169 10.0996 9.77645 9.70328 9.74875 9.29145C9.72106 8.87961 9.80718 8.46809 9.9977 8.10193C10.1882 7.73576 10.4758 7.42906 10.829 7.21539C11.1821 7.00172 11.5872 6.88931 12 6.89047ZM1.5 8.39047H7.5C7.69891 8.39047 7.88968 8.46949 8.03033 8.61014C8.17098 8.75079 8.25 8.94156 8.25 9.14047C8.25 9.33939 8.17098 9.53015 8.03033 9.6708C7.88968 9.81145 7.69891 9.89047 7.5 9.89047H1.5C1.30109 9.89047 1.11032 9.81145 0.969669 9.6708C0.829018 9.53015 0.75 9.33939 0.75 9.14047C0.75 8.94156 0.829018 8.75079 0.969669 8.61014C1.11032 8.46949 1.30109 8.39047 1.5 8.39047ZM10.5 13.6405H16.5C16.6989 13.6405 16.8897 13.7195 17.0303 13.8601C17.171 14.0008 17.25 14.1916 17.25 14.3905C17.25 14.5894 17.171 14.7802 17.0303 14.9208C16.8897 15.0615 16.6989 15.1405 16.5 15.1405H10.5C10.3011 15.1405 10.1103 15.0615 9.96967 14.9208C9.82902 14.7802 9.75 14.5894 9.75 14.3905C9.75 14.1916 9.82902 14.0008 9.96967 13.8601C10.1103 13.7195 10.3011 13.6405 10.5 13.6405ZM1.5 13.6405H3.885C4.06192 13.1401 4.41005 12.7183 4.86786 12.4497C5.32567 12.1812 5.86368 12.0831 6.3868 12.1729C6.90992 12.2626 7.38447 12.5344 7.72658 12.9402C8.06869 13.346 8.25632 13.8597 8.25632 14.3905C8.25632 14.9212 8.06869 15.4349 7.72658 15.8407C7.38447 16.2465 6.90992 16.5183 6.3868 16.6081C5.86368 16.6978 5.32567 16.5998 4.86786 16.3312C4.41005 16.0626 4.06192 15.6409 3.885 15.1405H1.5C1.30109 15.1405 1.11032 15.0615 0.969669 14.9208C0.829018 14.7802 0.75 14.5894 0.75 14.3905C0.75 14.1916 0.829018 14.0008 0.969669 13.8601C1.11032 13.7195 1.30109 13.6405 1.5 13.6405Z" fill="#7C8798"/>
</svg>
