<svg width="15" height="9" viewBox="0 0 15 9" fill="none" xmlns="http://www.w3.org/2000/svg">
<path d="M14.7254 5.02242L11.4038 8.34404C11.2207 8.52711 10.9808 8.61864 10.7409 8.61864C10.5009 8.61864 10.261 8.52711 10.0779 8.34404C9.71185 7.97792 9.71185 7.38433 10.0779 7.01821L11.7992 5.29702H0.9375C0.419736 5.29702 0 4.87728 0 4.35952C0 3.84175 0.419736 3.42202 0.9375 3.42202H11.7992L10.0779 1.70083C9.71185 1.3347 9.71185 0.741118 10.0779 0.374995C10.4441 0.00887207 11.0377 0.00887207 11.4038 0.374995L14.7254 3.69662C15.0915 4.06271 15.0915 4.65632 14.7254 5.02242Z" fill="#030303"/>
</svg>
