<svg width="15" height="9" viewBox="0 0 15 9" fill="none" xmlns="http://www.w3.org/2000/svg">
<path d="M14.7254 5.1629L11.4038 8.48452C11.2207 8.66759 10.9808 8.75912 10.7409 8.75912C10.5009 8.75912 10.261 8.66759 10.0779 8.48452C9.71185 8.1184 9.71185 7.52481 10.0779 7.15869L11.7992 5.4375H0.9375C0.419736 5.4375 0 5.01776 0 4.5C0 3.98223 0.419736 3.5625 0.9375 3.5625H11.7992L10.0779 1.84131C9.71185 1.47518 9.71185 0.881598 10.0779 0.515475C10.4441 0.149352 11.0377 0.149352 11.4038 0.515475L14.7254 3.8371C15.0915 4.20319 15.0915 4.7968 14.7254 5.1629Z" fill="#030303"/>
</svg>
