<svg width="14" height="18" viewBox="0 0 14 18" fill="none" xmlns="http://www.w3.org/2000/svg">
<path d="M0.102894 3.50859L3.50855 0.102973C3.57448 0.0370416 3.6639 1.26455e-06 3.75714 0L11.9879 0C12.3914 0.000455945 12.7782 0.160943 13.0635 0.446252C13.3488 0.73156 13.5093 1.11839 13.5098 1.52188L13.5098 16.4781C13.5093 16.8816 13.3488 17.2684 13.0635 17.5537C12.7782 17.8391 12.3914 17.9995 11.9879 18H1.52187C1.11838 17.9995 0.731554 17.8391 0.446245 17.5537C0.160935 17.2684 0.000447273 16.8816 -8.58307e-06 16.4781L-8.58307e-06 3.75725C-2.57492e-05 3.71108 0.00905228 3.66535 0.0267086 3.62269C0.0443649 3.58002 0.0702524 3.54125 0.102894 3.50859ZM3.40558 1.20034L1.20016 3.40569H2.58682C2.8039 3.40544 3.01201 3.31909 3.1655 3.16559C3.319 3.01209 3.40534 2.80398 3.40558 2.5869V1.20034ZM1.5218 17.2969H11.9878C12.2049 17.2966 12.413 17.2103 12.5665 17.0568C12.72 16.9033 12.8064 16.6952 12.8066 16.4781L12.8066 1.52188C12.8064 1.30481 12.72 1.0967 12.5666 0.94321C12.4131 0.789718 12.205 0.703376 11.9879 0.703125L4.1087 0.703125V2.5869C4.10826 2.9904 3.94777 3.37724 3.66246 3.66255C3.37715 3.94787 2.99032 4.10836 2.58682 4.10882H0.703046L0.703046 16.4781C0.703297 16.6952 0.789639 16.9033 0.943131 17.0568C1.09662 17.2103 1.30473 17.2966 1.5218 17.2969ZM2.19269 6.55636C2.19269 6.6496 2.22973 6.73902 2.29566 6.80495C2.36159 6.87088 2.45101 6.90792 2.54425 6.90792L10.9654 6.90792C11.0587 6.90792 11.1481 6.87088 11.214 6.80495C11.28 6.73902 11.317 6.6496 11.317 6.55636C11.317 6.46312 11.28 6.3737 11.214 6.30777C11.1481 6.24184 11.0587 6.2048 10.9654 6.2048L2.54425 6.2048C2.45101 6.2048 2.36159 6.24184 2.29566 6.30777C2.22973 6.3737 2.19269 6.46312 2.19269 6.55636ZM2.19269 9.28863C2.19269 9.38187 2.22973 9.47129 2.29566 9.53722C2.36159 9.60316 2.45101 9.64019 2.54425 9.64019L10.9654 9.64019C11.0587 9.64019 11.1481 9.60316 11.214 9.53722C11.28 9.47129 11.317 9.38187 11.317 9.28863C11.317 9.19539 11.28 9.10597 11.214 9.04004C11.1481 8.97411 11.0587 8.93707 10.9654 8.93707L2.54425 8.93707C2.45101 8.93707 2.36159 8.97411 2.29566 9.04004C2.22973 9.10597 2.19269 9.19539 2.19269 9.28863ZM2.19269 12.0209C2.19269 12.1142 2.22973 12.2036 2.29566 12.2695C2.36159 12.3355 2.45101 12.3725 2.54425 12.3725L10.9654 12.3725C11.0587 12.3725 11.1481 12.3355 11.214 12.2695C11.28 12.2036 11.317 12.1142 11.317 12.0209C11.317 11.9277 11.28 11.8383 11.214 11.7723C11.1481 11.7064 11.0587 11.6694 10.9654 11.6694L2.54425 11.6694C2.45101 11.6694 2.36159 11.7064 2.29566 11.7723C2.22973 11.8383 2.19269 11.9277 2.19269 12.0209ZM2.19269 14.7532C2.19269 14.8465 2.22973 14.9359 2.29566 15.0018C2.36159 15.0677 2.45101 15.1048 2.54425 15.1048L10.9654 15.1048C11.0587 15.1048 11.1481 15.0677 11.214 15.0018C11.28 14.9359 11.317 14.8465 11.317 14.7532C11.317 14.66 11.28 14.5706 11.214 14.5046C11.1481 14.4387 11.0587 14.4017 10.9654 14.4017L2.54425 14.4017C2.45101 14.4017 2.36159 14.4387 2.29566 14.5046C2.22973 14.5706 2.19269 14.66 2.19269 14.7532ZM10.8981 4.81103L7.3492 4.81103C7.25596 4.81103 7.16653 4.77399 7.1006 4.70806C7.03467 4.64213 6.99763 4.5527 6.99763 4.45947L6.99763 3.3641C6.99763 3.27086 7.03467 3.18144 7.1006 3.11551C7.16653 3.04958 7.25596 3.01254 7.3492 3.01254L10.8981 3.01254C10.9914 3.01254 11.0808 3.04958 11.1467 3.11551C11.2127 3.18144 11.2497 3.27086 11.2497 3.3641V4.45947C11.2497 4.5527 11.2127 4.64213 11.1467 4.70806C11.0808 4.77399 10.9914 4.81103 10.8981 4.81103ZM10.5466 3.71566L7.70076 3.71566V4.1079L10.5466 4.1079V3.71566Z" fill="#7C8798"/>
</svg>
