<svg width="30" height="30" viewBox="0 0 30 30" fill="none" xmlns="http://www.w3.org/2000/svg">
<g id="Frame" clip-path="url(#clip0_36_2120)">
<g id="Group">
<g id="Layer 17">
<path id="Vector" d="M14.3163 1.45969H14.3904V0.234375H11.4888V0.237187C10.9645 0.217112 10.4445 0.339168 9.98391 0.590433C9.52329 0.841699 9.13919 1.21283 8.87224 1.66453L6.43193 5.82937C6.37142 5.93284 6.33215 6.04733 6.31641 6.16615C6.30066 6.28497 6.30876 6.40574 6.34023 6.52139C6.3717 6.63705 6.4259 6.74527 6.49967 6.83973C6.57345 6.9342 6.66531 7.01301 6.7699 7.07156L10.1974 9.02156C10.4092 9.1424 10.66 9.17523 10.8957 9.11298C11.1315 9.05074 11.3333 8.89839 11.4579 8.68875L15.3485 2.0475L14.3163 1.45969Z" fill="#85BF4B"/>
<path id="Vector_2" d="M10.6568 9.37726C10.4551 9.37727 10.2569 9.32477 10.0816 9.22491L6.65601 7.27491C6.52468 7.20081 6.40941 7.10131 6.31693 6.98221C6.22444 6.86311 6.15659 6.72679 6.11732 6.5812C6.07806 6.43561 6.06816 6.28366 6.08822 6.1342C6.10827 5.98475 6.15788 5.84078 6.23414 5.71069L8.67164 1.54679C8.93866 1.09391 9.3151 0.715312 9.76644 0.445703C10.2178 0.176094 10.7296 0.0241018 11.2549 0.00366211H14.6248V1.36585L15.6705 1.96116L11.6609 8.80726C11.5576 8.98149 11.4107 9.12574 11.2346 9.22572C11.0585 9.3257 10.8593 9.37793 10.6568 9.37726ZM11.3866 0.468662C10.9203 0.466712 10.4616 0.586835 10.0561 0.81709C9.65065 1.04734 9.31247 1.37971 9.07523 1.78116L6.63492 5.94647C6.5901 6.0222 6.56087 6.10611 6.54896 6.1933C6.53704 6.28048 6.54268 6.36916 6.56554 6.45413C6.58887 6.54075 6.62924 6.62185 6.6843 6.69268C6.73935 6.76351 6.80798 6.82265 6.88617 6.86663L10.3123 8.81804C10.4706 8.90809 10.658 8.93257 10.8341 8.88622C11.0103 8.83987 11.1614 8.72639 11.2549 8.57007L15.0274 2.13366L13.4304 1.22522H14.156V0.468662H11.3866Z" fill="black"/>
<path id="Vector_3" d="M23.0021 5.35031L20.8426 1.66453C20.5942 1.24433 20.2439 0.893481 19.8241 0.644349C19.4044 0.395218 18.9286 0.255834 18.4407 0.239062L11.335 0.234375C13.2531 0.234375 13.562 1.05094 14.3659 2.0475C15.2903 3.19219 17.5065 7.2975 18.069 8.34516L16.8784 9.0675L22.112 9.78234L24.0292 4.72734L23.0021 5.35031Z" fill="#35A822"/>
<path id="Vector_4" d="M22.2657 10.0397L16.1926 9.21L17.7587 8.25984C16.4664 5.85469 14.8801 3.05672 14.185 2.19469C14.0715 2.05406 13.9679 1.91719 13.8681 1.78547C13.2681 0.994219 12.872 0.46875 11.3439 0.46875H11.335V0H11.3439L18.4407 0.00515625C18.9701 0.0207752 19.4868 0.170395 19.9426 0.440021C20.3984 0.709647 20.7784 1.09047 21.047 1.54688L23.0861 5.02734L24.4923 4.17469L22.2657 10.0397ZM17.5656 8.925L21.9587 9.525L23.5684 5.28094L22.922 5.67188L20.6411 1.78125C20.413 1.39469 20.091 1.07208 19.7048 0.843421C19.3186 0.614763 18.8809 0.487489 18.4323 0.473437L13.254 0.46875C13.6401 0.752864 13.9739 1.10178 14.2407 1.5C14.3378 1.62844 14.4386 1.76156 14.5487 1.89797C15.4731 3.04312 17.6354 7.03594 18.2757 8.23219L18.3803 8.42766L17.5656 8.925Z" fill="black"/>
<path id="Vector_5" d="M26.8675 22.6056L26.8305 22.6698L27.9137 23.2721L29.3397 20.7821H29.3373C29.6126 20.3409 29.7607 19.8322 29.7651 19.3121C29.7694 18.7921 29.63 18.2809 29.3622 17.8351L26.8811 13.6923C26.7545 13.4833 26.5508 13.3325 26.3141 13.2725C26.0773 13.2124 25.8263 13.2479 25.6155 13.3712L22.2072 15.354C22.1032 15.4136 22.0122 15.4934 21.9394 15.5886C21.8666 15.6838 21.8135 15.7925 21.7832 15.9085C21.7529 16.0244 21.746 16.1453 21.763 16.2639C21.7799 16.3826 21.8203 16.4966 21.8819 16.5995L25.84 23.2032L26.8675 22.6056Z" fill="#85BF4B"/>
<path id="Vector_6" d="M28.0021 23.5894L26.796 22.9181L25.7582 23.5223L21.6829 16.7198C21.6053 16.5904 21.5544 16.4467 21.533 16.2973C21.5116 16.1479 21.5202 15.9958 21.5583 15.8497C21.5964 15.7037 21.6632 15.5667 21.7549 15.4468C21.8465 15.3269 21.9612 15.2265 22.0921 15.1514L25.4995 13.1686C25.7636 13.0153 26.0773 12.9717 26.3732 13.0471C26.6692 13.1225 26.9238 13.3108 27.0824 13.5717L29.5631 17.7131C29.8314 18.1583 29.9815 18.6647 29.9989 19.1843C30.0163 19.7038 29.9004 20.2191 29.6624 20.6812L29.6282 20.7417L29.5917 20.8078L29.5415 20.8973L28.0021 23.5894ZM27.1518 22.5802L27.8254 22.9551L29.016 20.8805L29.0081 20.8767L29.1407 20.6569C29.3934 20.252 29.5291 19.7851 29.5328 19.3079C29.5364 18.8307 29.4079 18.3618 29.1613 17.9531L26.6803 13.8112C26.5852 13.6559 26.433 13.5439 26.2564 13.4993C26.0798 13.4547 25.8927 13.481 25.7353 13.5726L22.3274 15.5555C22.2496 15.6 22.1815 15.6598 22.1272 15.7311C22.0729 15.8024 22.0334 15.8839 22.011 15.9708C21.9889 16.056 21.984 16.1447 21.9967 16.2318C22.0093 16.3189 22.0392 16.4026 22.0846 16.478L25.9223 22.8844L27.5043 21.9642L27.1518 22.5802Z" fill="black"/>
<path id="Vector_7" d="M19.1587 28.147L23.4778 28.1057C23.966 28.1023 24.4455 27.976 24.872 27.7384C25.2985 27.5009 25.6582 27.1597 25.9181 26.7463L29.4154 20.6526C28.4728 22.2988 27.599 22.162 26.3217 22.3626C24.8559 22.5927 20.1342 22.4779 18.9365 22.4442L18.8831 21.0674L15.6787 25.207L19.2037 29.3371L19.1587 28.147Z" fill="#35A822"/>
<path id="Vector_8" d="M19.465 30.0001L15.3779 25.2109L19.0937 20.4109L19.1631 22.2132C21.9254 22.2868 25.1828 22.3014 26.2881 22.1279C26.4681 22.0998 26.6396 22.0782 26.8037 22.0571C27.7984 21.932 28.4561 21.8495 29.2079 20.5398L29.2103 20.5351L29.6167 20.7695L29.612 20.7779L26.1207 26.8618C25.8412 27.3112 25.4524 27.6825 24.9906 27.9409C24.5288 28.1994 24.009 28.3366 23.4798 28.3398L19.4017 28.3792L19.465 30.0001ZM15.984 25.1968L18.9465 28.6679L18.9175 27.9151L23.4775 27.8715C23.9266 27.8691 24.3678 27.7531 24.7601 27.5345C25.1524 27.3158 25.4831 27.0016 25.7214 26.6209L28.2653 22.179C27.8199 22.3739 27.3441 22.49 26.859 22.5221C26.6978 22.5423 26.5309 22.5634 26.3556 22.591C24.8907 22.8217 20.2998 22.7139 18.9278 22.6754L18.7084 22.6693L18.6718 21.7173L15.984 25.1968Z" fill="black"/>
<path id="Vector_9" d="M3.70352 23.963L3.66602 23.8992L2.58789 24.5086L4.0368 26.9859H4.03914C4.28913 27.4471 4.65926 27.8319 5.11026 28.0997C5.56127 28.3675 6.07634 28.5083 6.60086 28.507L11.481 28.5108C11.724 28.5128 11.9578 28.4182 12.1311 28.2479C12.3043 28.0775 12.4028 27.8453 12.4049 27.6024L12.4077 23.7024C12.4059 23.4594 12.3076 23.2271 12.1345 23.0566C11.9614 22.886 11.7277 22.7912 11.4848 22.793L3.70352 22.7874V23.963Z" fill="#85BF4B"/>
<path id="Vector_10" d="M11.4846 28.7461L6.60395 28.7423C6.0787 28.7435 5.56157 28.6128 5.09987 28.3624C4.63817 28.112 4.24664 27.7498 3.96113 27.3089L3.93676 27.2681C3.91801 27.2381 3.9002 27.2076 3.88238 27.1772L3.83926 27.1055L2.2666 24.4242L3.46895 23.7412V22.5525L11.4846 22.5586C11.7904 22.5578 12.0842 22.6781 12.3016 22.8933C12.4094 22.9988 12.495 23.1248 12.5533 23.2639C12.6116 23.403 12.6414 23.5524 12.641 23.7033L12.6377 27.6033C12.6353 27.9074 12.5128 28.1983 12.2967 28.4124C12.0807 28.6265 11.7887 28.7465 11.4846 28.7461ZM4.1252 26.6611L4.24426 26.8758C4.4741 27.2997 4.81436 27.6534 5.22897 27.8996C5.64358 28.1458 6.11708 28.2752 6.59926 28.2741L11.4799 28.2778C11.6606 28.2793 11.8345 28.2091 11.9635 28.0826C12.0925 27.956 12.166 27.7835 12.168 27.6028L12.1713 23.7028C12.1714 23.6141 12.1538 23.5263 12.1195 23.4445C12.0852 23.3627 12.0349 23.2886 11.9716 23.2266C11.8417 23.0983 11.6662 23.0267 11.4836 23.0273L3.9377 23.0217V24.8226L3.58145 24.2166L2.91113 24.5972L4.12051 26.6653L4.1252 26.6611Z" fill="black"/>
<path id="Vector_11" d="M2.78702 14.604L0.624203 18.2884C0.37897 18.7055 0.245238 19.1788 0.235879 19.6626C0.22652 20.1464 0.341849 20.6244 0.570765 21.0507L4.11452 27.1201C3.15686 25.4823 3.72077 24.8111 4.19514 23.627C4.7403 22.2676 7.24202 18.3217 7.88327 17.3209L9.11327 17.9771L7.12858 13.1514L1.7267 14.0387L2.78702 14.604Z" fill="#35A822"/>
<path id="Vector_12" d="M3.91193 27.2381L3.90865 27.2344L0.368647 21.1687C0.117952 20.7066 -0.00888061 20.1874 0.000483355 19.6617C0.00984732 19.136 0.155089 18.6217 0.422084 18.1687L2.46115 14.6948L1.00615 13.9219L7.27474 12.8906L9.57771 18.4903L7.96427 17.6297C7.25458 18.7434 4.92208 22.4372 4.41255 23.7141C4.34784 23.8734 4.28064 24.0317 4.21099 24.1889C3.8149 25.0936 3.55474 25.6922 4.3113 26.9925L4.31693 27.0019L3.91193 27.2381ZM2.44755 14.1563L3.11224 14.5106L0.826616 18.4069C0.601323 18.7894 0.47863 19.2236 0.470417 19.6675C0.462205 20.1114 0.568752 20.5499 0.779741 20.9405L3.36677 25.3716C3.42265 24.8935 3.56295 24.4291 3.78115 24C3.84583 23.8533 3.9124 23.7005 3.97755 23.5383C4.52365 22.1747 6.95412 18.3352 7.68583 17.1933L7.80255 17.0109L8.6463 17.4619L6.98458 13.4128L2.44755 14.1563Z" fill="black"/>
</g>
</g>
</g>
<defs>
<clipPath id="clip0_36_2120">
<rect width="30" height="30" fill="white"/>
</clipPath>
</defs>
</svg>
