<svg width="30" height="30" viewBox="0 0 30 30" fill="none" xmlns="http://www.w3.org/2000/svg">
<g id="Frame">
<g id="Group">
<g id="Clip path group">
<mask id="mask0_36_2070" style="mask-type:luminance" maskUnits="userSpaceOnUse" x="0" y="0" width="30" height="30">
<g id="a">
<path id="Vector" d="M0 9.15527e-05H29.9999V30H0V9.15527e-05Z" fill="white"/>
</g>
</mask>
<g mask="url(#mask0_36_2070)">
<g id="Group_2">
<path id="Vector_2" d="M10.0794 13.032C8.03465 13.032 6.37704 11.3743 6.37704 9.32955C6.37704 7.28475 8.03465 5.62708 10.0794 5.62708C12.1242 5.62708 13.7819 7.28475 13.7819 9.32955C13.7819 11.3743 12.1242 13.032 10.0794 13.032ZM18.4151 7.89559H17.4346C17.1759 7.89559 16.9539 7.71951 16.8859 7.47002C16.729 6.89487 16.4993 6.34209 16.2025 5.82507C16.0763 5.60505 16.108 5.32884 16.2873 5.14954L16.9876 4.44923C17.0915 4.34528 17.1499 4.2043 17.1499 4.0573C17.1499 3.9103 17.0915 3.76932 16.9876 3.66537L15.7436 2.42137C15.5271 2.20492 15.1761 2.20492 14.9597 2.42137L14.2595 3.12162C14.0801 3.30103 13.8039 3.33273 13.5839 3.20652C13.0669 2.90966 12.5141 2.67997 11.9389 2.52303C11.6894 2.455 11.5133 2.23299 11.5133 1.97436V0.993853C11.5133 0.846844 11.4549 0.705856 11.351 0.601906C11.247 0.497955 11.1061 0.439556 10.9591 0.439556H9.19984C9.05283 0.439556 8.91184 0.497955 8.80789 0.601906C8.70394 0.705856 8.64554 0.846844 8.64554 0.993853V1.97436C8.64554 2.23299 8.46941 2.455 8.21992 2.52303C7.64476 2.68001 7.09196 2.90969 6.57491 3.20652C6.35495 3.33273 6.07874 3.30097 5.89944 3.12162L5.19913 2.42137C5.09518 2.31742 4.9542 2.25903 4.8072 2.25903C4.66019 2.25903 4.51921 2.31742 4.41526 2.42137L3.17132 3.66537C3.11984 3.71683 3.079 3.77793 3.05114 3.84518C3.02328 3.91243 3.00894 3.98451 3.00894 4.0573C3.00894 4.13009 3.02328 4.20217 3.05114 4.26942C3.079 4.33667 3.11984 4.39777 3.17132 4.44923L3.87157 5.14954C4.05093 5.32884 4.08263 5.60505 3.95642 5.82501C3.65958 6.34203 3.42992 6.89481 3.27298 7.46996C3.20496 7.71951 2.98289 7.89559 2.72431 7.89559H1.74375C1.43766 7.89559 1.18945 8.14379 1.18945 8.44994V10.2091C1.18945 10.2819 1.20379 10.354 1.23165 10.4212C1.2595 10.4885 1.30033 10.5496 1.3518 10.601C1.40327 10.6525 1.46438 10.6933 1.53163 10.7212C1.59888 10.7491 1.67096 10.7634 1.74375 10.7634H2.72431C2.98289 10.7634 3.20496 10.9395 3.27298 11.189C3.42989 11.7642 3.65956 12.317 3.95642 12.834C4.08263 13.054 4.05093 13.3302 3.87157 13.5095L3.17132 14.2098C3.11984 14.2613 3.079 14.3224 3.05114 14.3896C3.02328 14.4569 3.00894 14.5289 3.00894 14.6017C3.00894 14.6745 3.02328 14.7466 3.05114 14.8139C3.079 14.8811 3.11984 14.9422 3.17132 14.9937L4.41526 16.2376C4.46673 16.2891 4.52783 16.3299 4.59508 16.3578C4.66232 16.3857 4.7344 16.4 4.8072 16.4C4.87999 16.4 4.95207 16.3857 5.01932 16.3578C5.08657 16.3299 5.14767 16.2891 5.19913 16.2376L5.89944 15.5374C6.07879 15.358 6.355 15.3263 6.57496 15.4526C7.09201 15.7494 7.64479 15.979 8.21992 16.136C8.46941 16.204 8.64554 16.4261 8.64554 16.6847V17.6651C8.64554 17.7379 8.65987 17.81 8.68772 17.8773C8.71557 17.9445 8.7564 18.0056 8.80787 18.0571C8.85934 18.1086 8.92045 18.1494 8.98771 18.1773C9.05496 18.2051 9.12704 18.2195 9.19984 18.2195H10.9591C11.0318 18.2195 11.1039 18.2051 11.1712 18.1773C11.2384 18.1494 11.2995 18.1086 11.351 18.0571C11.4025 18.0056 11.4433 17.9445 11.4712 17.8773C11.499 17.81 11.5134 17.7379 11.5133 17.6651V16.6847C11.5133 16.4261 11.6894 16.204 11.9389 16.136C12.5141 15.979 13.0669 15.7494 13.5839 15.4526C13.8039 15.3263 14.0801 15.358 14.2595 15.5374L14.9597 16.2376C15.1761 16.4541 15.5271 16.4541 15.7436 16.2376L16.9876 14.9937C17.0915 14.8897 17.1499 14.7487 17.1499 14.6017C17.1499 14.4547 17.0915 14.3138 16.9876 14.2098L16.2873 13.5095C16.108 13.3302 16.0763 13.0539 16.2025 12.834C16.4993 12.3169 16.729 11.7642 16.8859 11.189C16.9539 10.9395 17.1759 10.7634 17.4346 10.7634H18.4151C18.4879 10.7634 18.56 10.7491 18.6272 10.7212C18.6945 10.6933 18.7556 10.6525 18.807 10.601C18.8585 10.5496 18.8993 10.4885 18.9272 10.4212C18.955 10.354 18.9694 10.2819 18.9694 10.2091V8.44994C18.9694 8.14379 18.7212 7.89559 18.4151 7.89559Z" fill="#8EBAC5"/>
<path id="Vector_3" d="M21.7586 22.146L20.176 19.0111V15.5797H15.2937V19.0111L13.7109 22.146H21.7586Z" fill="#BB5D4C"/>
<path id="Vector_4" d="M18.418 15.5797V22.146H21.7585L20.1758 19.0111V15.5797H18.418Z" fill="#A44F3E"/>
<path id="Vector_5" d="M22.5898 11.1386H22.2799V9.90489C22.2799 8.67677 21.7758 7.48679 20.8451 6.68541C20.1155 6.05711 19.0898 5.50879 17.735 5.49367C16.3802 5.50879 15.3546 6.05711 14.6249 6.68541C13.6943 7.48679 13.1901 8.67677 13.1901 9.90489V11.1386H12.8802C12.4259 11.1386 12.0576 11.5069 12.0576 11.9612V12.8728C12.0576 13.327 12.4259 13.6953 12.8802 13.6953H13.1913C13.217 14.8892 13.7186 16.0382 14.6249 16.8186C15.3546 17.4468 16.3802 17.9952 17.735 18.0103C19.0898 17.9952 20.1155 17.4468 20.8451 16.8186C21.7514 16.0382 22.2531 14.8892 22.2787 13.6953H22.5898C23.0441 13.6953 23.4124 13.327 23.4124 12.8728V11.9612C23.4124 11.5069 23.0441 11.1386 22.5898 11.1386Z" fill="#BB5D4C"/>
<path id="Vector_6" d="M22.5903 11.1385H22.2804V9.90482C22.2804 8.6767 21.7763 7.48666 20.8456 6.68528C20.7228 6.57983 20.5952 6.48004 20.4633 6.38622L20.4628 14.4306C20.4372 15.6245 19.9355 16.7735 19.0292 17.5539C18.8691 17.6915 18.7009 17.8194 18.5254 17.9368C19.497 17.7663 20.2653 17.3181 20.8456 16.8185C21.7519 16.038 22.2536 14.889 22.2792 13.6952H22.5903C23.0446 13.6952 23.4129 13.3269 23.4129 12.8726V11.961C23.4129 11.5068 23.0446 11.1385 22.5903 11.1385Z" fill="#A44F3E"/>
<path id="Vector_7" d="M17.9738 4.12105H17.4979C14.6066 4.12105 12.2627 6.46491 12.2627 9.35626V10.8635H23.2089V9.35626C23.2089 6.46491 20.8651 4.12105 17.9738 4.12105Z" fill="#FF9838"/>
<path id="Vector_8" d="M17.9733 4.12105H17.4974C17.2747 4.12105 17.0553 4.13569 16.8398 4.16276C19.4179 4.48878 21.4116 6.68967 21.4116 9.35626V10.8635H23.2084V9.35626C23.2084 6.46491 20.8646 4.12105 17.9733 4.12105Z" fill="#FF8709"/>
<path id="Vector_9" d="M23.377 11.6287H12.0946C11.6762 11.6287 11.3369 11.2894 11.3369 10.8709C11.3369 10.4524 11.6762 10.1131 12.0946 10.1131H23.377C23.7954 10.1131 24.1347 10.4524 24.1347 10.8709C24.1347 11.2894 23.7954 11.6287 23.377 11.6287Z" fill="#FF8709"/>
<path id="Vector_10" d="M25.4506 20.0366L20.1765 19.011C20.1765 20.3592 17.7353 21.4522 17.7353 21.4522C17.7353 21.4522 15.2942 20.3592 15.2942 19.011L10.0201 20.0366C8.02853 20.623 6.66113 21.6633 6.66113 23.7393V28.2093C6.66113 28.9556 7.26611 29.5605 8.01242 29.5605H27.4582C28.2045 29.5605 28.8095 28.9556 28.8095 28.2093V23.7393C28.8095 21.6633 27.4421 20.623 25.4506 20.0366Z" fill="#DEECF1"/>
<path id="Vector_11" d="M26.415 20.381C26.8227 20.9239 27.0522 21.6001 27.0522 22.4503V29.5605H27.4588C28.2051 29.5605 28.8101 28.9556 28.8101 28.2093V23.7393C28.8101 22.0188 27.8703 21.01 26.415 20.381Z" fill="#A8D3D8"/>
<path id="Vector_12" d="M15.2937 19.011L13.3174 19.3953C13.4349 20.4905 14.4069 21.4809 15.4092 22.2256C15.69 22.4342 16.0696 22.4506 16.3696 22.2708L17.7349 21.4522C17.7349 21.4522 15.2937 20.3593 15.2937 19.011Z" fill="#8EBAC5"/>
<path id="Vector_13" d="M20.1765 19.011C20.1765 20.3593 17.7354 21.4522 17.7354 21.4522L19.1006 22.2708C19.4006 22.4506 19.7803 22.4342 20.061 22.2256C21.0634 21.4809 22.0354 20.4905 22.1529 19.3953L20.1765 19.011Z" fill="#8EBAC5"/>
<path id="Vector_14" d="M9.29102 20.2854L9.58516 21.269C10.0651 22.9222 10.3087 24.635 10.3087 26.3565V29.5605H17.7351V26.9071C17.7352 26.1617 17.505 25.4344 17.0759 24.8247C15.8445 23.0744 13.3176 19.3954 13.3176 19.3953L10.49 19.9451C10.0813 20.0246 9.6792 20.1362 9.29102 20.2854Z" fill="#FF9838"/>
<path id="Vector_15" d="M26.1794 20.2854L25.8853 21.269C25.4053 22.9222 25.1617 24.635 25.1617 26.3565V29.5605H17.7354L17.7354 26.9071C17.7353 26.1617 17.9655 25.4344 18.3945 24.8247C19.626 23.0744 22.1529 19.3954 22.1529 19.3953L24.9805 19.9451C25.3891 20.0246 25.7913 20.1362 26.1794 20.2854Z" fill="#FF8709"/>
<path id="Vector_16" d="M22.7158 27.3608H20.1313C20.0486 27.3608 19.9692 27.328 19.9107 27.2695C19.8522 27.2109 19.8193 27.1316 19.8193 27.0488V26.1683C19.8193 26.0855 19.8522 26.0062 19.9107 25.9477C19.9692 25.8891 20.0486 25.8563 20.1313 25.8563H22.7158C22.7985 25.8563 22.8779 25.8891 22.9364 25.9477C22.9949 26.0062 23.0278 26.0855 23.0278 26.1683V27.0488C23.0278 27.1316 22.9949 27.2109 22.9364 27.2695C22.8779 27.328 22.7985 27.3608 22.7158 27.3608Z" fill="#FFF156"/>
</g>
</g>
</g>
</g>
</g>
</svg>
