<svg width="30" height="30" viewBox="0 0 30 30" fill="none" xmlns="http://www.w3.org/2000/svg">
<g id="Frame" clip-path="url(#clip0_36_1999)">
<g id="Group">
<g id="Fill Outline">
<path id="Vector" d="M7.09375 8.78125H10.375V10.6562H7.09375V8.78125Z" fill="#FCEA42"/>
<path id="Vector_2" d="M10.375 8.78125V10.6562H7.09375V8.78125H7.5625C7.5625 9.02989 7.66127 9.26835 7.83709 9.44416C8.0129 9.61998 8.25136 9.71875 8.5 9.71875C8.74864 9.71875 8.9871 9.61998 9.16291 9.44416C9.33873 9.26835 9.4375 9.02989 9.4375 8.78125H10.375Z" fill="#FDC741"/>
<path id="Vector_3" d="M19.75 2.21875H26.7812V5.96875H19.75V2.21875Z" fill="#ADE8F4"/>
<path id="Vector_4" d="M26.7812 2.21875V5.96875H19.75V2.21875H20.6875V2.6875C20.6875 3.18478 20.885 3.66169 21.2367 4.01333C21.5883 4.36496 22.0652 4.5625 22.5625 4.5625H23.9688C24.466 4.5625 24.9429 4.36496 25.2946 4.01333C25.6462 3.66169 25.8438 3.18478 25.8438 2.6875V2.21875H26.7812Z" fill="#48CAE4"/>
<path id="Vector_5" d="M26.7812 1.28125H28.6562V6.90625H26.7812V1.28125Z" fill="#FCEA42"/>
<path id="Vector_6" d="M9.90625 5.03125V14.875H1.46875V18.625H10.8438C11.5897 18.625 12.305 18.3287 12.8325 17.8012C13.3599 17.2738 13.6562 16.5584 13.6562 15.8125V5.96875H17.4062V2.21875H12.7188C11.9728 2.21875 11.2575 2.51507 10.73 3.04251C10.2026 3.56996 9.90625 4.28533 9.90625 5.03125Z" fill="#ADE8F4"/>
<path id="Vector_7" d="M16.4266 2.21875C16.3159 2.87362 15.977 3.46819 15.4699 3.89716C14.9629 4.32613 14.3204 4.56183 13.6562 4.5625H9.94844C9.9213 4.7173 9.90719 4.8741 9.90625 5.03125V14.875C9.90625 15.3723 9.70871 15.8492 9.35707 16.2008C9.00544 16.5525 8.52853 16.75 8.03125 16.75H4.75C4.25272 16.75 3.77581 16.5525 3.42417 16.2008C3.07254 15.8492 2.875 15.3723 2.875 14.875H1.46875V18.625H10.8438C11.1633 18.6244 11.4804 18.5691 11.7812 18.4614V16.2812C11.7812 15.784 11.9788 15.3071 12.3304 14.9554C12.6821 14.6038 13.159 14.4062 13.6562 14.4062V11.5938H11.3125V10.6562C11.3125 10.159 11.51 9.68206 11.8617 9.33043C12.2133 8.97879 12.6902 8.78125 13.1875 8.78125H13.6562V5.96875H17.4062V2.21875H16.4266Z" fill="#48CAE4"/>
<path id="Vector_8" d="M13.6562 5.96875H9.90625C9.38848 5.96875 8.96875 6.38848 8.96875 6.90625C8.96875 7.42402 9.38848 7.84375 9.90625 7.84375H13.6562C14.174 7.84375 14.5938 7.42402 14.5938 6.90625C14.5938 6.38848 14.174 5.96875 13.6562 5.96875Z" fill="#FCEA42"/>
<path id="Vector_9" d="M13.6562 11.5938H9.90625C9.38848 11.5938 8.96875 12.0135 8.96875 12.5312C8.96875 13.049 9.38848 13.4688 9.90625 13.4688H13.6562C14.174 13.4688 14.5938 13.049 14.5938 12.5312C14.5938 12.0135 14.174 11.5938 13.6562 11.5938Z" fill="#FCEA42"/>
<path id="Vector_10" d="M7.09375 7.84375C7.09375 7.32598 6.67402 6.90625 6.15625 6.90625C5.63848 6.90625 5.21875 7.32598 5.21875 7.84375V11.5938C5.21875 12.1115 5.63848 12.5312 6.15625 12.5312C6.67402 12.5312 7.09375 12.1115 7.09375 11.5938V7.84375Z" fill="#EF5350"/>
<path id="Vector_11" d="M12.7188 23.7812C12.7188 24.2785 12.5212 24.7554 12.1696 25.1071C11.8179 25.4587 11.341 25.6562 10.8438 25.6562C10.3465 25.6562 9.86956 25.4587 9.51793 25.1071C9.16629 24.7554 8.96875 24.2785 8.96875 23.7812C8.96875 22.375 10.8438 20.5 10.8438 20.5C10.8438 20.5 12.7188 22.375 12.7188 23.7812Z" fill="#ADE8F4"/>
<path id="Vector_12" d="M20.5871 -1.53125C19.7183 -1.48188 18.9022 -1.09857 18.3095 -0.461452C17.7168 0.175661 17.3933 1.01725 17.4066 1.88734V16.0469C17.4066 16.3577 17.5301 16.6557 17.7499 16.8755C17.9697 17.0953 18.2677 17.2188 18.5785 17.2188C18.8893 17.2188 19.1874 17.0953 19.4072 16.8755C19.6269 16.6557 19.7504 16.3577 19.7504 16.0469V2.21875H24.9066C24.9066 1.22419 24.5116 0.270361 23.8083 -0.4329C23.105 -1.13616 22.1512 -1.53125 21.1566 -1.53125H20.5871Z" fill="#E9F1F2"/>
<path id="Vector_13" d="M18.3438 3.6249V5.4999C18.3438 5.87286 18.4919 6.23055 18.7557 6.49427C19.0194 6.75799 19.3771 6.90615 19.75 6.90615V12.5312C19.3771 12.5312 19.0194 12.6793 18.7557 12.943C18.4919 13.2068 18.3438 13.5644 18.3438 13.9374V14.8749C18.3437 15.2438 18.4887 15.598 18.7473 15.8611C19.006 16.1241 19.3577 16.275 19.7266 16.2812C19.6688 16.566 19.5072 16.8191 19.2732 16.9915C19.0392 17.1638 18.7495 17.2431 18.4604 17.2139C18.1712 17.1847 17.9033 17.0491 17.7085 16.8334C17.5137 16.6177 17.406 16.3374 17.4063 16.0468V1.88584C17.404 1.24289 17.5809 0.612016 17.917 0.0639267C18.2532 -0.484162 18.7353 -0.927807 19.3094 -1.21729C19.3835 -0.78099 19.6096 -0.384976 19.9476 -0.0993087C20.2856 0.186359 20.7137 0.343266 21.1563 0.343652H24.4C24.7336 0.912046 24.9085 1.5596 24.9063 2.21865H19.75C19.3771 2.21865 19.0194 2.36681 18.7557 2.63053C18.4919 2.89426 18.3438 3.25194 18.3438 3.6249Z" fill="#D0D8DA"/>
<path id="Vector_14" d="M19.75 16.0469V16.2812H19.7266C19.7416 16.204 19.7494 16.1256 19.75 16.0469ZM21.625 5.5H24.9062V7.84375H21.625V5.5Z" fill="#D0D8DA"/>
<path id="Vector_15" d="M16 9.71875C16 10.216 16.1975 10.6929 16.5492 11.0446C16.9008 11.3962 17.3777 11.5938 17.875 11.5938H21.625L21.7033 13.9375H20.0983C19.8816 13.9376 19.6739 14.0237 19.5207 14.1769C19.3675 14.3301 19.2814 14.5379 19.2812 14.7545C19.2808 14.9263 19.3346 15.0939 19.4349 15.2333C19.5353 15.3728 19.677 15.477 19.84 15.5313L21.7778 16.1772L22.0366 22.4069C22.0524 22.7767 22.2104 23.1261 22.4777 23.3822C22.745 23.6383 23.1008 23.7812 23.4709 23.7812C23.8516 23.7812 24.2167 23.63 24.4859 23.3609C24.755 23.0917 24.9062 22.7266 24.9062 22.3459V7.84375H17.875C17.3777 7.84375 16.9008 8.04129 16.5492 8.39293C16.1975 8.74456 16 9.22147 16 9.71875Z" fill="#EF5350"/>
<path id="Vector_16" d="M24.9062 2.21875H20.6875V0.34375H24.4C24.7336 0.912144 24.9084 1.55969 24.9062 2.21875Z" fill="#D0D8DA"/>
<path id="Vector_17" d="M24.9062 2.21875H20.6875V0.34375H21.7094C21.8042 0.618515 21.9826 0.856691 22.2197 1.02484C22.4568 1.19298 22.7406 1.28265 23.0312 1.28125H24.7891C24.8663 1.58778 24.9057 1.90263 24.9062 2.21875Z" fill="#B8BEBF"/>
<path id="Vector_18" d="M24.9062 21.7141V22.3469C24.9046 22.7268 24.753 23.0907 24.4844 23.3594C24.2157 23.628 23.8518 23.7796 23.4719 23.7812C23.1011 23.7813 22.7446 23.6378 22.4773 23.3809C22.2099 23.124 22.0523 22.7736 22.0375 22.4031L21.7797 16.1781L19.8391 15.5313C19.655 15.4697 19.4989 15.3448 19.3984 15.1788C19.298 15.0127 19.2599 14.8164 19.2909 14.6248C19.3219 14.4333 19.4199 14.259 19.5676 14.1331C19.7152 14.0072 19.9028 13.9379 20.0969 13.9375H21.7047L21.625 11.5938H17.875C17.3777 11.5938 16.9008 11.3962 16.5492 11.0446C16.1975 10.6929 16 10.216 16 9.71875C16 9.22147 16.1975 8.74456 16.5492 8.39293C16.9008 8.04129 17.3777 7.84375 17.875 7.84375H17.9219C18.0283 8.37395 18.3155 8.85076 18.7344 9.19274C19.1533 9.53471 19.678 9.72064 20.2188 9.71875H21.1562C21.7779 9.71875 22.374 9.96568 22.8135 10.4052C23.2531 10.8448 23.5 11.4409 23.5 12.0625V19.5625C23.501 20.0187 23.6345 20.4649 23.8841 20.8468C24.1337 21.2287 24.4888 21.53 24.9062 21.7141Z" fill="#E53935"/>
<path id="Vector_19" d="M24.9062 6.90625V7.84375H21.625V5.5H22.5625C22.5625 5.87296 22.7107 6.23065 22.9744 6.49437C23.2381 6.75809 23.5958 6.90625 23.9688 6.90625H24.9062Z" fill="#B8BEBF"/>
<g id="Group_2">
<path id="Vector_20" d="M14.5938 12.5312C14.5919 12.7793 14.4925 13.0167 14.3171 13.1921C14.1417 13.3675 13.9043 13.4669 13.6562 13.4688H9.90625C9.65784 13.468 9.41981 13.369 9.24416 13.1933C9.0685 13.0177 8.96949 12.7797 8.96875 12.5312C8.97059 12.2832 9.06995 12.0458 9.24537 11.8704C9.42079 11.695 9.65818 11.5956 9.90625 11.5938C9.90699 11.8422 10.006 12.0802 10.1817 12.2558C10.3573 12.4315 10.5953 12.5305 10.8438 12.5312H14.5938ZM14.5938 6.90625C14.5919 7.15432 14.4925 7.39171 14.3171 7.56713C14.1417 7.74255 13.9043 7.84191 13.6562 7.84375H9.90625C9.65784 7.84301 9.41981 7.744 9.24416 7.56834C9.0685 7.39269 8.96949 7.15466 8.96875 6.90625C8.97059 6.65818 9.06995 6.42079 9.24537 6.24537C9.42079 6.06995 9.65818 5.97059 9.90625 5.96875C9.90699 6.21716 10.006 6.45519 10.1817 6.63084C10.3573 6.8065 10.5953 6.90551 10.8438 6.90625H14.5938ZM28.6562 5.96875V6.90625H26.7812V1.28125H27.7188V5.03125C27.7195 5.27966 27.8185 5.51769 27.9942 5.69334C28.1698 5.869 28.4078 5.96801 28.6562 5.96875Z" fill="#FDC741"/>
</g>
<path id="Vector_21" d="M12.7047 24.0062C12.6464 24.4797 12.4098 24.9132 12.0431 25.2183C11.6764 25.5235 11.2072 25.6774 10.731 25.6487C10.2548 25.62 9.80749 25.4109 9.48008 25.064C9.15267 24.717 8.96981 24.2583 8.96875 23.7812C8.96875 22.9047 9.69531 21.85 10.2437 21.1797C10.0422 21.5474 9.92683 21.9562 9.90625 22.375C9.90635 22.7027 9.99234 23.0247 10.1556 23.3088C10.319 23.5929 10.5539 23.8293 10.837 23.9943C11.1201 24.1593 11.4415 24.2473 11.7692 24.2494C12.0969 24.2515 12.4195 24.1676 12.7047 24.0062Z" fill="#48CAE4"/>
<path id="Vector_22" d="M7.09375 11.5938C7.09375 11.8424 6.99498 12.0808 6.81916 12.2567C6.64335 12.4325 6.40489 12.5312 6.15625 12.5312C5.90761 12.5312 5.66915 12.4325 5.49334 12.2567C5.31752 12.0808 5.21875 11.8424 5.21875 11.5938V7.84375C5.21949 7.59534 5.3185 7.35731 5.49416 7.18166C5.66981 7.006 5.90784 6.90699 6.15625 6.90625V10.6562C6.15699 10.9047 6.256 11.1427 6.43166 11.3183C6.60731 11.494 6.84534 11.593 7.09375 11.5938Z" fill="#E53935"/>
<g id="Outline copy">
<path id="Vector_23" d="M28.6562 0.8125C28.5319 0.8125 28.4127 0.861887 28.3248 0.949794C28.2369 1.0377 28.1875 1.15693 28.1875 1.28125V6.4375H27.25V1.28125C27.25 1.15693 27.2006 1.0377 27.1127 0.949794C27.0248 0.861887 26.9056 0.8125 26.7812 0.8125C26.6569 0.8125 26.5377 0.861887 26.4498 0.949794C26.3619 1.0377 26.3125 1.15693 26.3125 1.28125V1.75H25.3473C25.2329 0.718647 24.742 -0.234232 23.9686 -0.926164C23.1953 -1.6181 22.1939 -2.00045 21.1562 -2H20.5703C19.6047 -1.946 18.6949 -1.52998 18.0225 -0.834927C17.35 -0.139872 16.9643 0.783137 16.9422 1.75H12.7188C11.8488 1.75099 11.0148 2.09701 10.3997 2.71215C9.78451 3.32729 9.43849 4.16131 9.4375 5.03125V5.58625C9.1635 5.68171 8.92599 5.86007 8.75792 6.0966C8.58985 6.33313 8.49956 6.61609 8.49956 6.90625C8.49956 7.19641 8.58985 7.47937 8.75792 7.7159C8.92599 7.95243 9.1635 8.13079 9.4375 8.22625V8.3125H7.5625V7.84375C7.5625 7.47079 7.41434 7.1131 7.15062 6.84938C6.8869 6.58566 6.52921 6.4375 6.15625 6.4375C5.78329 6.4375 5.4256 6.58566 5.16188 6.84938C4.89816 7.1131 4.75 7.47079 4.75 7.84375V11.5938C4.75 11.9667 4.89816 12.3244 5.16188 12.5881C5.4256 12.8518 5.78329 13 6.15625 13C6.52921 13 6.8869 12.8518 7.15062 12.5881C7.41434 12.3244 7.5625 11.9667 7.5625 11.5938V11.125H9.4375V11.2052C9.16353 11.3015 8.92624 11.4806 8.75837 11.7175C8.59051 11.9545 8.50035 12.2378 8.50035 12.5282C8.50035 12.8186 8.59051 13.1019 8.75837 13.3389C8.92624 13.5759 9.16353 13.7549 9.4375 13.8513V14.4062H1.46875C1.34443 14.4062 1.2252 14.4556 1.13729 14.5435C1.04939 14.6315 1 14.7507 1 14.875C1 14.9993 1.04939 15.1185 1.13729 15.2065C1.2252 15.2944 1.34443 15.3438 1.46875 15.3438H9.90625C10.0306 15.3438 10.1498 15.2944 10.2377 15.2065C10.3256 15.1185 10.375 14.9993 10.375 14.875V13.9375H13.1875V15.8125C13.1868 16.4339 12.9396 17.0296 12.5002 17.469C12.0608 17.9083 11.4651 18.1555 10.8438 18.1562H9.4375C9.31318 18.1562 9.19395 18.2056 9.10604 18.2935C9.01814 18.3815 8.96875 18.5007 8.96875 18.625C8.96875 18.7493 9.01814 18.8685 9.10604 18.9565C9.19395 19.0444 9.31318 19.0938 9.4375 19.0938H10.8438C11.7137 19.0928 12.5477 18.7467 13.1628 18.1316C13.778 17.5165 14.124 16.6824 14.125 15.8125V13.8513C14.399 13.7558 14.6365 13.5774 14.8046 13.3409C14.9726 13.1044 15.0629 12.8214 15.0629 12.5312C15.0629 12.2411 14.9726 11.9581 14.8046 11.7216C14.6365 11.4851 14.399 11.3067 14.125 11.2113V8.23234C14.399 8.13504 14.6362 7.95536 14.804 7.71794C14.9719 7.48053 15.0621 7.197 15.0625 6.90625C15.0609 6.7462 15.0318 6.58762 14.9762 6.4375H15.5312C15.6556 6.4375 15.7748 6.38811 15.8627 6.30021C15.9506 6.2123 16 6.09307 16 5.96875C16 5.84443 15.9506 5.7252 15.8627 5.63729C15.7748 5.54939 15.6556 5.5 15.5312 5.5H10.375V5.03125C10.3757 4.40988 10.6229 3.81417 11.0623 3.37479C11.5017 2.93541 12.0974 2.68824 12.7188 2.6875H16.9375V7.57375C16.4459 7.79023 16.0435 8.16904 15.7978 8.64675C15.5521 9.12446 15.4779 9.67208 15.5878 10.1979C15.6976 10.7238 15.9847 11.1959 16.4011 11.5354C16.8175 11.8748 17.3378 12.0609 17.875 12.0625H19.2812V13.7702C19.1348 13.8895 19.0168 14.04 18.9357 14.2107C18.8547 14.3814 18.8126 14.5679 18.8126 14.7569C18.8126 14.9458 18.8547 15.1324 18.9357 15.303C19.0168 15.4737 19.1348 15.6242 19.2812 15.7436V16.0469C19.2812 16.2334 19.2072 16.4122 19.0753 16.5441C18.9434 16.6759 18.7646 16.75 18.5781 16.75C18.3916 16.75 18.2128 16.6759 18.0809 16.5441C17.9491 16.4122 17.875 16.2334 17.875 16.0469V13.4022C17.875 13.2779 17.8256 13.1586 17.7377 13.0707C17.6498 12.9828 17.5306 12.9334 17.4062 12.9334C17.2819 12.9334 17.1627 12.9828 17.0748 13.0707C16.9869 13.1586 16.9375 13.2779 16.9375 13.4022V16.0469C16.9365 16.473 17.1017 16.8828 17.398 17.1891C17.6943 17.4954 18.0985 17.674 18.5244 17.687C18.9504 17.7 19.3647 17.5464 19.6791 17.2587C19.9936 16.9711 20.1835 16.5722 20.2084 16.1467L21.3227 16.5184L21.5683 22.4247C21.5874 22.9235 21.8016 23.3948 22.1649 23.7373C22.5281 24.0797 23.0113 24.2657 23.5103 24.2554C24.0094 24.2451 24.4845 24.0392 24.8332 23.6821C25.182 23.3249 25.3765 22.8451 25.375 22.3459V13.9375C25.375 13.8132 25.3256 13.694 25.2377 13.606C25.1498 13.5181 25.0306 13.4688 24.9062 13.4688C24.7819 13.4688 24.6627 13.5181 24.5748 13.606C24.4869 13.694 24.4375 13.8132 24.4375 13.9375V22.3459C24.4408 22.601 24.3431 22.847 24.1658 23.0303C23.9885 23.2136 23.7459 23.3195 23.4909 23.3247C23.2359 23.33 22.9892 23.2342 22.8045 23.0584C22.6198 22.8825 22.5121 22.6407 22.5048 22.3858L22.2461 16.1566C22.2422 16.0616 22.2095 15.9702 22.1524 15.8942C22.0953 15.8183 22.0165 15.7615 21.9264 15.7314L19.9886 15.0855C19.9098 15.0596 19.8428 15.0065 19.7996 14.9356C19.7565 14.8648 19.7401 14.7809 19.7533 14.699C19.7665 14.6171 19.8085 14.5426 19.8718 14.489C19.935 14.4353 20.0153 14.406 20.0983 14.4062H21.7033C21.7662 14.4063 21.8284 14.3937 21.8863 14.3691C21.9442 14.3446 21.9966 14.3087 22.0403 14.2635C22.0841 14.2184 22.1183 14.1648 22.1409 14.1062C22.1635 14.0475 22.1741 13.9849 22.172 13.922L22.0938 11.5783C22.0897 11.4567 22.0386 11.3414 21.9511 11.2568C21.8636 11.1722 21.7467 11.1249 21.625 11.125H17.875C17.502 11.125 17.1444 10.9768 16.8806 10.7131C16.6169 10.4494 16.4688 10.0917 16.4688 9.71875C16.4688 9.34579 16.6169 8.9881 16.8806 8.72438C17.1444 8.46066 17.502 8.3125 17.875 8.3125H24.4375V12.0625C24.4375 12.1868 24.4869 12.306 24.5748 12.394C24.6627 12.4819 24.7819 12.5312 24.9062 12.5312C25.0306 12.5312 25.1498 12.4819 25.2377 12.394C25.3256 12.306 25.375 12.1868 25.375 12.0625V6.4375H26.3125V6.90625C26.3125 7.03057 26.3619 7.1498 26.4498 7.23771C26.5377 7.32561 26.6569 7.375 26.7812 7.375H28.6562C28.7806 7.375 28.8998 7.32561 28.9877 7.23771C29.0756 7.1498 29.125 7.03057 29.125 6.90625V1.28125C29.125 1.15693 29.0756 1.0377 28.9877 0.949794C28.8998 0.861887 28.7806 0.8125 28.6562 0.8125ZM6.625 11.5938C6.625 11.7181 6.57561 11.8373 6.48771 11.9252C6.3998 12.0131 6.28057 12.0625 6.15625 12.0625C6.03193 12.0625 5.9127 12.0131 5.82479 11.9252C5.73689 11.8373 5.6875 11.7181 5.6875 11.5938V7.84375C5.6875 7.71943 5.73689 7.6002 5.82479 7.51229C5.9127 7.42439 6.03193 7.375 6.15625 7.375C6.28057 7.375 6.3998 7.42439 6.48771 7.51229C6.57561 7.6002 6.625 7.71943 6.625 7.84375V11.5938ZM7.5625 10.1875V9.25H9.4375V10.1875H7.5625ZM14.125 6.90625C14.125 7.03057 14.0756 7.1498 13.9877 7.23771C13.8998 7.32561 13.7806 7.375 13.6562 7.375C13.5319 7.375 13.4127 7.42439 13.3248 7.51229C13.2369 7.6002 13.1875 7.71943 13.1875 7.84375V11.125H11.7812C11.6569 11.125 11.5377 11.1744 11.4498 11.2623C11.3619 11.3502 11.3125 11.4694 11.3125 11.5938C11.3125 11.7181 11.3619 11.8373 11.4498 11.9252C11.5377 12.0131 11.6569 12.0625 11.7812 12.0625H13.6562C13.7806 12.0625 13.8998 12.1119 13.9877 12.1998C14.0756 12.2877 14.125 12.4069 14.125 12.5312C14.125 12.6556 14.0756 12.7748 13.9877 12.8627C13.8998 12.9506 13.7806 13 13.6562 13H9.90625C9.78193 13 9.6627 12.9506 9.57479 12.8627C9.48689 12.7748 9.4375 12.6556 9.4375 12.5312C9.4375 12.4069 9.48689 12.2877 9.57479 12.1998C9.6627 12.1119 9.78193 12.0625 9.90625 12.0625C10.0306 12.0625 10.1498 12.0131 10.2377 11.9252C10.3256 11.8373 10.375 11.7181 10.375 11.5938V8.3125H11.7812C11.9056 8.3125 12.0248 8.26311 12.1127 8.17521C12.2006 8.0873 12.25 7.96807 12.25 7.84375C12.25 7.71943 12.2006 7.6002 12.1127 7.51229C12.0248 7.42439 11.9056 7.375 11.7812 7.375H9.90625C9.78193 7.375 9.6627 7.32561 9.57479 7.23771C9.48689 7.1498 9.4375 7.03057 9.4375 6.90625C9.4375 6.78193 9.48689 6.6627 9.57479 6.57479C9.6627 6.48689 9.78193 6.4375 9.90625 6.4375H13.6562C13.7806 6.4375 13.8998 6.48689 13.9877 6.57479C14.0756 6.6627 14.125 6.78193 14.125 6.90625ZM21.2186 13.4688H20.2188V12.0625H21.1717L21.2186 13.4688ZM24.1178 0.8125C24.2603 1.1087 24.357 1.4248 24.4047 1.75H21.1562V0.8125H24.1178ZM17.875 1.88734C17.8621 1.14169 18.1364 0.419631 18.6411 -0.129441C19.1457 -0.678513 19.8422 -1.01257 20.5863 -1.0625H21.1562C22.0139 -1.06386 22.8375 -0.727004 23.4484 -0.125H20.6875C20.5632 -0.125 20.444 -0.0756135 20.356 0.0122943C20.2681 0.100202 20.2188 0.21943 20.2188 0.34375V1.75H19.75C19.6257 1.75 19.5065 1.79939 19.4185 1.88729C19.3306 1.9752 19.2812 2.09443 19.2812 2.21875V7.375H17.875V1.88734ZM21.1562 7.375H20.2188V6.4375H21.1562V7.375ZM22.0938 7.375V5.96875H24.4375V7.375H22.0938ZM25.375 5.5C25.375 5.37568 25.3256 5.25645 25.2377 5.16854C25.1498 5.08064 25.0306 5.03125 24.9062 5.03125H21.625C21.5007 5.03125 21.3815 5.08064 21.2935 5.16854C21.2056 5.25645 21.1562 5.37568 21.1562 5.5H20.2188V2.6875H26.3125V5.5H25.375Z" fill="#323232"/>
<path id="Vector_24" d="M7.5625 18.1562H1.46875C1.34443 18.1562 1.2252 18.2056 1.13729 18.2935C1.04939 18.3815 1 18.5007 1 18.625C1 18.7493 1.04939 18.8685 1.13729 18.9565C1.2252 19.0444 1.34443 19.0938 1.46875 19.0938H7.5625C7.68682 19.0938 7.80605 19.0444 7.89396 18.9565C7.98186 18.8685 8.03125 18.7493 8.03125 18.625C8.03125 18.5007 7.98186 18.3815 7.89396 18.2935C7.80605 18.2056 7.68682 18.1562 7.5625 18.1562ZM18.3438 9.25C18.2194 9.25 18.1002 9.29939 18.0123 9.38729C17.9244 9.4752 17.875 9.59443 17.875 9.71875C17.875 9.84307 17.9244 9.9623 18.0123 10.0502C18.1002 10.1381 18.2194 10.1875 18.3438 10.1875H23.0312C23.1556 10.1875 23.2748 10.1381 23.3627 10.0502C23.4506 9.9623 23.5 9.84307 23.5 9.71875C23.5 9.59443 23.4506 9.4752 23.3627 9.38729C23.2748 9.29939 23.1556 9.25 23.0312 9.25H18.3438ZM10.5123 20.1686C10.3066 20.3744 8.5 22.2259 8.5 23.7812C8.5 24.4029 8.74693 24.999 9.18647 25.4385C9.62601 25.8781 10.2221 26.125 10.8438 26.125C11.4654 26.125 12.0615 25.8781 12.501 25.4385C12.9406 24.999 13.1875 24.4029 13.1875 23.7812C13.1875 22.2259 11.3809 20.3744 11.1752 20.1686C11.0873 20.0807 10.968 20.0314 10.8438 20.0314C10.7195 20.0314 10.6002 20.0807 10.5123 20.1686ZM10.8438 25.1875C10.4708 25.1875 10.1131 25.0393 9.84938 24.7756C9.58566 24.5119 9.4375 24.1542 9.4375 23.7812C9.4375 22.9717 10.2738 21.8406 10.8438 21.1891C11.4137 21.8406 12.25 22.9703 12.25 23.7812C12.25 24.1542 12.1018 24.5119 11.8381 24.7756C11.5744 25.0393 11.2167 25.1875 10.8438 25.1875Z" fill="#323232"/>
</g>
</g>
</g>
</g>
<defs>
<clipPath id="clip0_36_1999">
<rect width="30" height="30" fill="white"/>
</clipPath>
</defs>
</svg>
