<svg width="18" height="18" viewBox="0 0 18 18" fill="none" xmlns="http://www.w3.org/2000/svg">
<g id="Frame" clip-path="url(#clip0_36_1934)">
<g id="Group">
<path id="Vector" fill-rule="evenodd" clip-rule="evenodd" d="M8.99935 0.666016C4.39685 0.666016 0.666016 4.39685 0.666016 8.99935C0.666016 13.6018 4.39685 17.3327 8.99935 17.3327C13.6018 17.3327 17.3327 13.6018 17.3327 8.99935C17.3327 4.39685 13.6018 0.666016 8.99935 0.666016ZM10.666 8.51101V11.4993C10.666 11.7204 10.7538 11.9323 10.9101 12.0886C11.0664 12.2449 11.2783 12.3327 11.4993 12.3327C11.7204 12.3327 11.9323 12.2449 12.0886 12.0886C12.2449 11.9323 12.3327 11.7204 12.3327 11.4993V6.49935C12.3327 6.27834 12.2449 6.06637 12.0886 5.91009C11.9323 5.75381 11.7204 5.66602 11.4993 5.66602H6.49935C6.27834 5.66602 6.06637 5.75381 5.91009 5.91009C5.75381 6.06637 5.66602 6.27834 5.66602 6.49935C5.66602 6.72036 5.75381 6.93232 5.91009 7.0886C6.06637 7.24488 6.27834 7.33268 6.49935 7.33268H9.48768L5.91018 10.9102C5.83059 10.9871 5.7671 11.079 5.72343 11.1807C5.67976 11.2823 5.65677 11.3917 5.65581 11.5023C5.65485 11.613 5.67593 11.7227 5.71783 11.8251C5.75973 11.9276 5.82161 12.0206 5.89985 12.0988C5.9781 12.1771 6.07114 12.239 6.17355 12.2809C6.27597 12.3228 6.3857 12.3439 6.49635 12.3429C6.607 12.3419 6.71635 12.3189 6.81802 12.2753C6.91969 12.2316 7.01164 12.1681 7.08852 12.0885L10.666 8.51101Z" fill="#356A7E"/>
</g>
</g>
<defs>
<clipPath id="clip0_36_1934">
<rect width="18" height="18" fill="white"/>
</clipPath>
</defs>
</svg>
