<svg width="30" height="30" viewBox="0 0 30 30" fill="none" xmlns="http://www.w3.org/2000/svg">
<g id="Frame" clip-path="url(#clip0_36_2039)">
<g id="Group">
<g id="Layer 30">
<path id="Vector" d="M0.9375 23.9062V15C0.9375 14.2541 1.23382 13.5387 1.76126 13.0113C2.28871 12.4838 3.00408 12.1875 3.75 12.1875H26.25C26.9959 12.1875 27.7113 12.4838 28.2387 13.0113C28.7662 13.5387 29.0625 14.2541 29.0625 15V23.9062C29.0625 24.2792 28.9143 24.6369 28.6506 24.9006C28.3869 25.1643 28.0292 25.3125 27.6562 25.3125H2.34375C1.97079 25.3125 1.6131 25.1643 1.34938 24.9006C1.08566 24.6369 0.9375 24.2792 0.9375 23.9062Z" fill="#3665A6"/>
<path id="Vector_2" d="M26.2496 12.1875H3.74965C3.10145 12.1867 2.47305 12.4109 1.97168 12.8217C2.35588 16.007 3.89347 18.9412 6.29389 21.0699C8.69431 23.1986 11.7913 24.3744 14.9996 24.375H28.9759C29.0315 24.2249 29.0606 24.0663 29.0621 23.9063V15C29.0621 14.2541 28.7658 13.5387 28.2384 13.0113C27.7109 12.4838 26.9956 12.1875 26.2496 12.1875Z" fill="#4D81BD"/>
<path id="Vector_3" d="M0.9375 23.9062C0.9375 24.2792 1.08566 24.6369 1.34938 24.9006C1.6131 25.1643 1.97079 25.3125 2.34375 25.3125H27.6562C28.0292 25.3125 28.3869 25.1643 28.6506 24.9006C28.9143 24.6369 29.0625 24.2792 29.0625 23.9062V19.6875H0.9375V23.9062Z" fill="#889EA6"/>
<path id="Vector_4" d="M15.0002 24.375H28.9764C29.032 24.2249 29.0611 24.0663 29.0627 23.9062V19.6875H4.94922C6.17953 21.1566 7.71728 22.3379 9.45396 23.1478C11.1906 23.9577 13.0839 24.3767 15.0002 24.375Z" fill="#99B1B8"/>
<path id="Vector_5" d="M26.25 21.5625H3.75C3.23223 21.5625 2.8125 21.9822 2.8125 22.5C2.8125 23.0178 3.23223 23.4375 3.75 23.4375H26.25C26.7678 23.4375 27.1875 23.0178 27.1875 22.5C27.1875 21.9822 26.7678 21.5625 26.25 21.5625Z" fill="#344047"/>
<path id="Vector_6" d="M26.25 17.8125C26.7678 17.8125 27.1875 17.3928 27.1875 16.875C27.1875 16.3572 26.7678 15.9375 26.25 15.9375C25.7322 15.9375 25.3125 16.3572 25.3125 16.875C25.3125 17.3928 25.7322 17.8125 26.25 17.8125Z" fill="#B2CEA2"/>
<path id="Vector_7" d="M22.5 17.8125C23.0178 17.8125 23.4375 17.3928 23.4375 16.875C23.4375 16.3572 23.0178 15.9375 22.5 15.9375C21.9822 15.9375 21.5625 16.3572 21.5625 16.875C21.5625 17.3928 21.9822 17.8125 22.5 17.8125Z" fill="#B2CEA2"/>
<path id="Vector_8" d="M29.0629 23.9062C29.0618 23.9888 29.0535 24.0712 29.0381 24.1523C29.0542 24.0713 29.0626 23.9889 29.0629 23.9062Z" fill="#4D81BD"/>
<path id="Vector_9" d="M26.2498 21.5625H6.88672C7.87216 22.3393 8.9639 22.9707 10.1286 23.4375H26.2498C26.4985 23.4375 26.7369 23.3387 26.9128 23.1629C27.0886 22.9871 27.1873 22.7486 27.1873 22.5C27.1873 22.2514 27.0886 22.0129 26.9128 21.8371C26.7369 21.6613 26.4985 21.5625 26.2498 21.5625Z" fill="#53626C"/>
<g id="Group_2">
<path id="Vector_10" d="M14.5312 26.7188H15.4688V29.5312H14.5312V26.7188ZM5.15625 26.7188H6.09375V29.5312H5.15625V26.7188ZM9.84375 26.7188H10.7812V29.5312H9.84375V26.7188ZM19.2188 26.7188H20.1562V29.5312H19.2188V26.7188ZM23.9062 26.7188H24.8438V29.5312H23.9062V26.7188Z" fill="#6BBAE9"/>
</g>
<path id="Vector_11" d="M11.2498 12.1875V7.89375C10.5613 7.61564 9.97084 7.13938 9.5533 6.52534C9.13577 5.9113 8.90992 5.18713 8.9044 4.4446C8.89888 3.70206 9.11392 2.97461 9.52228 2.35443C9.93064 1.73425 10.5139 1.24926 11.1982 0.960937L11.2498 0.9375V4.41563L12.656 5.35313L14.0623 4.41563V0.9375C14.7548 1.21809 15.3477 1.69901 15.7652 2.31865C16.1827 2.93829 16.4058 3.66846 16.4058 4.41563C16.4058 5.16279 16.1827 5.89296 15.7652 6.5126C15.3477 7.13224 14.7548 7.61316 14.0623 7.89375V12.1875" fill="#677982"/>
<path id="Vector_12" d="M18.75 12.1875V6.5625L18.2803 5.625L18.7495 0.9375H20.6245L21.0937 5.625L20.625 6.5625V12.1875" fill="#889EA6"/>
<path id="Vector_13" d="M18.75 6.5625H20.625V12.1875H18.75V6.5625Z" fill="#677982"/>
<path id="Vector_14" d="M14.0625 0.9375V4.41563L12.6562 5.35313V12.1875H14.0625V7.89375C14.755 7.61316 15.3479 7.13224 15.7654 6.5126C16.1829 5.89296 16.406 5.16279 16.406 4.41563C16.406 3.66846 16.1829 2.93829 15.7654 2.31865C15.3479 1.69901 14.755 1.21809 14.0625 0.9375Z" fill="#768891"/>
<path id="Vector_15" d="M26.25 11.7187H21.0938V6.67306L21.5156 5.83447C21.5552 5.75515 21.5714 5.66624 21.5625 5.57806L21.0938 0.890559C21.0821 0.774533 21.0276 0.667018 20.9409 0.589009C20.8542 0.511001 20.7416 0.4681 20.625 0.468684H18.75C18.6334 0.4681 18.5208 0.511001 18.4341 0.589009C18.3474 0.667018 18.2929 0.774533 18.2812 0.890559L17.8125 5.57806C17.8037 5.66639 17.8199 5.75541 17.8594 5.83493L18.2812 6.67306V11.7187H14.5312V8.19603C15.2596 7.8344 15.868 7.27008 16.2833 6.57091C16.6986 5.87175 16.9031 5.06751 16.8722 4.2549C16.8413 3.44229 16.5763 2.6559 16.1091 1.99029C15.642 1.32468 14.9925 0.80818 14.2387 0.502903C14.1676 0.474021 14.0904 0.463073 14.014 0.471024C13.9376 0.478974 13.8643 0.505579 13.8006 0.548497C13.7369 0.591416 13.6847 0.649333 13.6486 0.717154C13.6126 0.784974 13.5937 0.860619 13.5938 0.937434V4.16478L12.6562 4.78962L11.7188 4.16478V0.937434C11.7187 0.859004 11.699 0.781834 11.6615 0.712991C11.6239 0.644148 11.5696 0.585833 11.5037 0.543389C11.4377 0.500944 11.3622 0.475726 11.284 0.470045C11.2057 0.464364 11.1273 0.478402 11.0559 0.510872L11.017 0.528684C10.2725 0.84242 9.63373 1.36334 9.17664 2.02953C8.71954 2.69572 8.46335 3.47915 8.43851 4.28669C8.41368 5.09423 8.62125 5.89192 9.03655 6.58494C9.45185 7.27795 10.0574 7.83714 10.7812 8.19603V11.7187H3.75C2.8801 11.7198 2.04615 12.0659 1.43104 12.681C0.815927 13.2961 0.469866 14.13 0.46875 14.9999V23.9062C0.46875 24.4035 0.666294 24.8804 1.01792 25.232C1.36956 25.5836 1.84647 25.7812 2.34375 25.7812H27.6562C28.1535 25.7812 28.6304 25.5836 28.9821 25.232C29.3337 24.8804 29.5312 24.4035 29.5312 23.9062V14.9999C29.5301 14.13 29.1841 13.2961 28.569 12.681C27.9538 12.0659 27.1199 11.7198 26.25 11.7187ZM19.1719 1.40618H20.1984L20.6123 5.53681L20.3353 6.09368H19.0397L18.7584 5.53681L19.1719 1.40618ZM19.2188 7.03118H20.1562V11.7187H19.2188V7.03118ZM11.4253 7.45915C10.8771 7.23752 10.3989 6.87185 10.0414 6.40082C9.68391 5.92978 9.46035 5.37089 9.39436 4.78324C9.32837 4.19559 9.42241 3.60103 9.66655 3.06244C9.91068 2.52384 10.2958 2.06123 10.7812 1.72353V4.41556C10.7812 4.49271 10.8003 4.56867 10.8367 4.63671C10.873 4.70474 10.9257 4.76274 10.9898 4.80556L12.3961 5.74306C12.4731 5.79445 12.5636 5.82188 12.6562 5.82188C12.7489 5.82188 12.8394 5.79445 12.9164 5.74306L14.3227 4.80556C14.3868 4.76274 14.4395 4.70474 14.4758 4.63671C14.5122 4.56867 14.5313 4.49271 14.5312 4.41556V1.72072C15.0164 2.05896 15.4012 2.52193 15.6451 3.06073C15.8889 3.59954 15.9828 4.19419 15.9167 4.78191C15.8507 5.36963 15.6271 5.92861 15.2698 6.39984C14.9124 6.87106 14.4344 7.23705 13.8863 7.45915C13.7998 7.49424 13.7258 7.55434 13.6736 7.63175C13.6215 7.70916 13.5937 7.80037 13.5938 7.89368V11.7187H11.7188V7.89368C11.7187 7.80026 11.6908 7.70898 11.6385 7.63155C11.5862 7.55413 11.512 7.49409 11.4253 7.45915ZM27.6562 24.8437H2.34375C2.09511 24.8437 1.85665 24.7449 1.68084 24.5691C1.50502 24.3933 1.40625 24.1548 1.40625 23.9062V20.1562H28.5938V23.9062C28.5938 24.1548 28.495 24.3933 28.3192 24.5691C28.1433 24.7449 27.9049 24.8437 27.6562 24.8437ZM28.5938 19.2187H1.40625V14.9999C1.40699 14.3786 1.65416 13.7829 2.09354 13.3435C2.53292 12.9041 3.12863 12.6569 3.75 12.6562H26.25C26.8714 12.6569 27.4671 12.9041 27.9065 13.3435C28.3458 13.7829 28.593 14.3786 28.5938 14.9999V19.2187Z" fill="black"/>
<path id="Vector_16" d="M26.25 21.0938H3.75C3.37704 21.0938 3.01935 21.2419 2.75563 21.5056C2.49191 21.7694 2.34375 22.127 2.34375 22.5C2.34375 22.873 2.49191 23.2306 2.75563 23.4944C3.01935 23.7581 3.37704 23.9062 3.75 23.9062H26.25C26.623 23.9062 26.9806 23.7581 27.2444 23.4944C27.5081 23.2306 27.6562 22.873 27.6562 22.5C27.6562 22.127 27.5081 21.7694 27.2444 21.5056C26.9806 21.2419 26.623 21.0938 26.25 21.0938ZM26.25 22.9688H3.75C3.62568 22.9688 3.50645 22.9194 3.41854 22.8315C3.33064 22.7435 3.28125 22.6243 3.28125 22.5C3.28125 22.3757 3.33064 22.2565 3.41854 22.1685C3.50645 22.0806 3.62568 22.0312 3.75 22.0312H26.25C26.3743 22.0312 26.4935 22.0806 26.5815 22.1685C26.6694 22.2565 26.7188 22.3757 26.7188 22.5C26.7188 22.6243 26.6694 22.7435 26.5815 22.8315C26.4935 22.9194 26.3743 22.9688 26.25 22.9688ZM26.25 15.4688C25.9719 15.4688 25.7 15.5512 25.4687 15.7057C25.2375 15.8603 25.0572 16.0799 24.9508 16.3369C24.8444 16.5938 24.8165 16.8766 24.8708 17.1493C24.925 17.4221 25.059 17.6727 25.2556 17.8694C25.4523 18.066 25.7029 18.2 25.9757 18.2542C26.2484 18.3085 26.5312 18.2806 26.7881 18.1742C27.0451 18.0678 27.2647 17.8875 27.4193 17.6563C27.5738 17.425 27.6562 17.1531 27.6562 16.875C27.6562 16.502 27.5081 16.1444 27.2444 15.8806C26.9806 15.6169 26.623 15.4688 26.25 15.4688ZM26.25 17.3438C26.1573 17.3438 26.0667 17.3163 25.9896 17.2648C25.9125 17.2132 25.8524 17.14 25.8169 17.0544C25.7815 16.9687 25.7722 16.8745 25.7903 16.7836C25.8083 16.6926 25.853 16.6091 25.9185 16.5435C25.9841 16.478 26.0676 16.4333 26.1586 16.4153C26.2495 16.3972 26.3437 16.4065 26.4294 16.4419C26.515 16.4774 26.5882 16.5375 26.6398 16.6146C26.6913 16.6917 26.7188 16.7823 26.7188 16.875C26.7188 16.9993 26.6694 17.1185 26.5815 17.2065C26.4935 17.2944 26.3743 17.3438 26.25 17.3438ZM22.5 15.4688C22.2219 15.4688 21.95 15.5512 21.7187 15.7057C21.4875 15.8603 21.3072 16.0799 21.2008 16.3369C21.0944 16.5938 21.0665 16.8766 21.1208 17.1493C21.175 17.4221 21.309 17.6727 21.5056 17.8694C21.7023 18.066 21.9529 18.2 22.2257 18.2542C22.4984 18.3085 22.7812 18.2806 23.0381 18.1742C23.2951 18.0678 23.5147 17.8875 23.6693 17.6563C23.8238 17.425 23.9062 17.1531 23.9062 16.875C23.9062 16.502 23.7581 16.1444 23.4944 15.8806C23.2306 15.6169 22.873 15.4688 22.5 15.4688ZM22.5 17.3438C22.4073 17.3438 22.3167 17.3163 22.2396 17.2648C22.1625 17.2132 22.1024 17.14 22.0669 17.0544C22.0315 16.9687 22.0222 16.8745 22.0403 16.7836C22.0583 16.6926 22.103 16.6091 22.1685 16.5435C22.2341 16.478 22.3176 16.4333 22.4086 16.4153C22.4995 16.3972 22.5937 16.4065 22.6794 16.4419C22.765 16.4774 22.8382 16.5375 22.8898 16.6146C22.9413 16.6917 22.9688 16.7823 22.9688 16.875C22.9688 16.9993 22.9194 17.1185 22.8315 17.2065C22.7435 17.2944 22.6243 17.3438 22.5 17.3438ZM14.5312 26.7188H15.4688V29.5312H14.5312V26.7188ZM5.15625 26.7188H6.09375V29.5312H5.15625V26.7188ZM9.84375 26.7188H10.7812V29.5312H9.84375V26.7188ZM19.2188 26.7188H20.1562V29.5312H19.2188V26.7188ZM23.9062 26.7188H24.8438V29.5312H23.9062V26.7188Z" fill="black"/>
</g>
</g>
</g>
<defs>
<clipPath id="clip0_36_2039">
<rect width="30" height="30" fill="white"/>
</clipPath>
</defs>
</svg>
