<svg width="24" height="24" viewBox="0 0 24 24" fill="none" xmlns="http://www.w3.org/2000/svg">
<path fill-rule="evenodd" clip-rule="evenodd" d="M11.2501 4.46819H7.50525V3.78509C7.50525 3.58622 7.42624 3.39549 7.28562 3.25487C7.14499 3.11424 6.95425 3.03524 6.75537 3.03524C6.55649 3.03524 6.36576 3.11424 6.22513 3.25487C6.0845 3.39549 6.0055 3.58622 6.0055 3.78509V4.46819H5.24962C4.65299 4.46819 4.08079 4.7052 3.6589 5.12707C3.23701 5.54894 3 6.12111 3 6.71773V18.7505C3 19.3471 3.23701 19.9193 3.6589 20.3411C4.08079 20.763 4.65299 21 5.24962 21H18.7504C19.3473 21 19.9194 20.7631 20.3409 20.3409C20.5499 20.1321 20.7157 19.8842 20.8288 19.6113C20.9419 19.3384 21.0001 19.0459 21 18.7505V6.71773C21 6.12085 20.763 5.54872 20.3409 5.12731C20.1321 4.91827 19.8842 4.75246 19.6113 4.63936C19.3383 4.52626 19.0458 4.46809 18.7504 4.46819H18.0035V3.74984C18.0035 3.55097 17.9245 3.36025 17.7839 3.21962C17.6432 3.079 17.4525 3 17.2536 3C17.0547 3 16.864 3.079 16.7234 3.21962C16.5828 3.36025 16.5037 3.55097 16.5037 3.74984V4.46819H12.7499V3.74984C12.7499 3.55097 12.6709 3.36025 12.5302 3.21962C12.3896 3.079 12.1989 3 12 3C11.8011 3 11.6104 3.079 11.4698 3.21962C11.3291 3.36025 11.2501 3.55097 11.2501 3.74984V4.46819ZM19.5002 10.5052V18.7505C19.5005 18.849 19.4814 18.9467 19.4438 19.0378C19.4062 19.1289 19.351 19.2117 19.2813 19.2814C19.2116 19.351 19.1288 19.4063 19.0377 19.4438C18.9466 19.4814 18.8489 19.5006 18.7504 19.5003H5.24962C5.15107 19.5006 5.05342 19.4814 4.96231 19.4438C4.8712 19.4063 4.78841 19.351 4.71872 19.2814C4.64903 19.2117 4.59381 19.1289 4.55623 19.0378C4.51865 18.9467 4.49945 18.849 4.49975 18.7505V10.5052H19.5002ZM18.0035 5.96788V6.74622C18.0035 6.94509 17.9245 7.13582 17.7839 7.27644C17.6432 7.41706 17.4525 7.49606 17.2536 7.49606C17.0547 7.49606 16.864 7.41706 16.7234 7.27644C16.5828 7.13582 16.5037 6.94509 16.5037 6.74622V5.96788H12.7499V6.77771C12.7499 6.97658 12.6709 7.16731 12.5302 7.30793C12.3896 7.44856 12.1989 7.52756 12 7.52756C11.8011 7.52756 11.6104 7.44856 11.4698 7.30793C11.3291 7.16731 11.2501 6.97658 11.2501 6.77771V5.96788H7.50525V6.77771C7.50525 6.97658 7.42624 7.16731 7.28562 7.30793C7.14499 7.44856 6.95425 7.52756 6.75537 7.52756C6.55649 7.52756 6.36576 7.44856 6.22513 7.30793C6.0845 7.16731 6.0055 6.97658 6.0055 6.77771V5.96788H5.24962C5.15107 5.96759 5.05342 5.98678 4.96231 6.02436C4.8712 6.06193 4.78841 6.11715 4.71872 6.18684C4.64903 6.25653 4.59381 6.33931 4.55623 6.43042C4.51865 6.52153 4.49945 6.61917 4.49975 6.71773V9.0055H19.5002V6.71773C19.5005 6.61917 19.4814 6.52153 19.4438 6.43042C19.4062 6.33931 19.351 6.25653 19.2813 6.18684C19.2116 6.11715 19.1288 6.06193 19.0377 6.02436C18.9466 5.98678 18.8489 5.96759 18.7504 5.96788H18.0035Z" fill="#767676"/>
<path fill-rule="evenodd" clip-rule="evenodd" d="M7 13H8.42857V14.6617H7V13ZM7 16.3383H8.42857V18H7V16.3383ZM9.85714 13H11.2857V14.6617H9.85714V13ZM9.85714 16.3383H11.2857V18H9.85714V16.3383ZM12.7143 13H14.1429V14.6617H12.7143V13ZM12.7143 16.3383H14.1429V18H12.7143V16.3383ZM15.5714 13H17V14.6617H15.5714V13ZM15.5714 16.3383H17V18H15.5714V16.3383Z" fill="#5F76E8"/>
</svg>
