<svg width="24" height="24" viewBox="0 0 24 24" fill="none" xmlns="http://www.w3.org/2000/svg">
<g clip-path="url(#clip0_70_385)">
<path d="M22.9974 0.822006L22.9676 0.79523C22.4001 0.283159 21.6584 -0.000583548 20.889 9.01085e-07C20.4607 0.00038909 20.0371 0.0885452 19.6451 0.258875C19.2532 0.429205 18.9014 0.677989 18.6122 0.989441L7.59488 12.8796C7.49449 12.988 7.41828 13.1159 7.3712 13.2551L6.07572 17.0835C5.92594 17.5261 6.00112 18.0156 6.27678 18.3928C6.55464 18.773 7.00228 19 7.47432 19C7.67849 19 7.87813 18.9586 8.06741 18.877L11.8183 17.2594C11.9547 17.2006 12.077 17.1142 12.1774 17.0059L23.1948 5.11575C24.3413 3.87855 24.2528 1.95252 22.9974 0.822006ZM8.55782 16.3763L9.318 14.1298L9.38211 14.0606L10.8229 15.3578L10.7588 15.427L8.55782 16.3763ZM21.6239 3.70126L12.2578 13.8094L10.817 12.5121L20.1831 2.40393C20.3663 2.20623 20.617 2.09731 20.8891 2.09731C21.1277 2.09731 21.3563 2.18484 21.5332 2.34409L21.5629 2.37087C21.9518 2.72105 21.9792 3.31787 21.6239 3.70126Z" fill="#A6A6A6"/>
<path d="M20.9626 9.37389C20.3897 9.37389 19.9252 9.84055 19.9252 10.4162V19.2649C19.9252 20.7264 18.7416 21.9155 17.2869 21.9155H4.71321C3.25838 21.9155 2.07487 20.7264 2.07487 19.2649V6.7352C2.07487 5.27365 3.25845 4.08455 4.71321 4.08455H13.8141C14.387 4.08455 14.8515 3.61789 14.8515 3.04228C14.8515 2.46666 14.387 2 13.8141 2H4.71321C2.11429 2 0 4.12423 0 6.7352V19.2648C0 21.8758 2.11436 24 4.71321 24H17.2868C19.8856 24 22 21.8758 22 19.2648V10.4162C22.0001 9.84055 21.5356 9.37389 20.9626 9.37389Z" fill="#A6A6A6"/>
</g>
<defs>
<clipPath id="clip0_70_385">
<rect width="24" height="24" fill="white"/>
</clipPath>
</defs>
</svg>
