<svg width="24" height="24" viewBox="0 0 24 24" fill="none" xmlns="http://www.w3.org/2000/svg">
<path d="M12.8343 22C12.464 22 12.0929 21.916 11.747 21.7458L10.08 20.9253C9.676 20.728 9.33625 20.4233 9.09924 20.0456C8.86224 19.668 8.73745 19.2325 8.73902 18.7886V13.7443C8.73905 13.5534 8.68035 13.367 8.57064 13.2096L2.37938 4.33063C2.15625 4.01108 2.02628 3.63748 2.00358 3.25037C1.98089 2.86325 2.06632 2.47742 2.25061 2.13471C2.43379 1.79177 2.70885 1.50473 3.04596 1.3047C3.38307 1.10468 3.76938 0.999302 4.163 1H19.837C20.2306 0.999302 20.6169 1.10468 20.954 1.3047C21.2911 1.50473 21.5662 1.79177 21.7494 2.13471C22.125 2.83444 22.0755 3.67591 21.6206 4.32913L15.4293 13.2088C15.3191 13.366 15.2601 13.5525 15.2602 13.7435V19.6076C15.2616 20.015 15.1565 20.416 14.9549 20.7718C14.7532 21.1277 14.4619 21.4264 14.1089 21.6393C13.7265 21.8732 13.2853 21.9976 12.835 21.9985L12.8343 22ZM4.16224 2.5007C4.04578 2.49896 3.93116 2.52937 3.83137 2.58849C3.73158 2.64761 3.65062 2.73308 3.59767 2.83519C3.54219 2.93604 3.51644 3.05014 3.52331 3.16463C3.53017 3.27911 3.56938 3.38944 3.63652 3.48316L9.82703 12.3606C10.112 12.7686 10.2628 13.2478 10.2628 13.7443V18.7886C10.2628 19.1276 10.4541 19.4313 10.7619 19.5836L12.4289 20.4041C12.7154 20.5458 13.0354 20.5308 13.3074 20.3651C13.5794 20.1993 13.7356 19.9241 13.7356 19.6091V13.745C13.7356 13.2486 13.8865 12.7693 14.1722 12.3606L20.3627 3.48316C20.4298 3.38944 20.469 3.27911 20.4759 3.16463C20.4828 3.05014 20.457 2.93604 20.4015 2.83519C20.3485 2.73319 20.2675 2.64782 20.1677 2.58872C20.0679 2.52962 19.9534 2.49913 19.837 2.5007H4.16224Z" fill="#767676"/>
<path d="M15.2352 5H8.76482C8.56198 5 8.36744 4.94732 8.22401 4.85355C8.08058 4.75979 8 4.63261 8 4.5C8 4.36739 8.08058 4.24021 8.22401 4.14645C8.36744 4.05268 8.56198 4 8.76482 4H15.2352C15.438 4 15.6326 4.05268 15.776 4.14645C15.9194 4.24021 16 4.36739 16 4.5C16 4.63261 15.9194 4.75979 15.776 4.85355C15.6326 4.94732 15.438 5 15.2352 5Z" fill="#5F76E8"/>
</svg>
