<svg width="24" height="24" viewBox="0 0 24 24" fill="none" xmlns="http://www.w3.org/2000/svg">
<path d="M19.1364 8.72727C17.0036 8.72727 15.2727 6.99636 15.2727 4.86364C15.2727 2.73091 17.0036 1 19.1364 1C21.2691 1 23 2.73091 23 4.86364C23 6.99636 21.2691 8.72727 19.1364 8.72727ZM19.1364 2.54545C17.8588 2.54545 16.8182 3.58606 16.8182 4.86364C16.8182 6.14121 17.8588 7.18182 19.1364 7.18182C20.4139 7.18182 21.4545 6.14121 21.4545 4.86364C21.4545 3.58606 20.4139 2.54545 19.1364 2.54545ZM11.9242 13.8788H6.77273C6.3503 13.8788 6 13.5285 6 13.1061C6 12.6836 6.3503 12.3333 6.77273 12.3333H11.9242C12.3467 12.3333 12.697 12.6836 12.697 13.1061C12.697 13.5285 12.3467 13.8788 11.9242 13.8788ZM16.0455 18H6.77273C6.3503 18 6 17.6497 6 17.2273C6 16.8048 6.3503 16.4545 6.77273 16.4545H16.0455C16.4679 16.4545 16.8182 16.8048 16.8182 17.2273C16.8182 17.6497 16.4679 18 16.0455 18Z" fill="#5F76E8"/>
<path d="M15.0698 23H8.93023C3.37395 23 1 20.626 1 15.0698V8.93023C1 3.37395 3.37395 1 8.93023 1H14.0465C14.466 1 14.814 1.34791 14.814 1.76744C14.814 2.18698 14.466 2.53488 14.0465 2.53488H8.93023C4.21302 2.53488 2.53488 4.21302 2.53488 8.93023V15.0698C2.53488 19.787 4.21302 21.4651 8.93023 21.4651H15.0698C19.787 21.4651 21.4651 19.787 21.4651 15.0698V9.95349C21.4651 9.53395 21.813 9.18605 22.2326 9.18605C22.6521 9.18605 23 9.53395 23 9.95349V15.0698C23 20.626 20.626 23 15.0698 23Z" fill="#767676"/>
</svg>
