<svg width="24" height="24" viewBox="0 0 24 24" fill="none" xmlns="http://www.w3.org/2000/svg">
<path d="M12.0061 7.97469C11.454 7.97469 11.0613 8.21522 11.0613 8.56965V13.3924C11.0613 13.6962 11.454 14 12.0061 14C12.5337 14 12.9631 13.6962 12.9631 13.3924V8.56965C12.9631 8.21522 12.5337 7.97469 12.0061 7.97469ZM12.0061 5C11.4417 5 11 5.41772 11 5.89873C11 6.37974 11.4417 6.81013 12.0061 6.81013C12.5583 6.81013 13 6.37974 13 5.89873C13 5.41776 12.5582 5 12.0061 5Z" fill="#A6A6A6"/>
<path d="M12.5 0C6.69627 0 2 4.61005 2 10.3065C2 14.958 5.11817 18.8202 9.32218 20.1319L11.7101 23.5888C11.7976 23.7155 11.9153 23.8192 12.053 23.8908C12.1907 23.9625 12.3442 24 12.5 24C12.6558 24 12.8093 23.9625 12.947 23.8908C13.0847 23.8192 13.2024 23.7155 13.2899 23.5888L15.6778 20.1319C19.8837 18.8196 23 14.956 23 10.3065C23 4.60644 18.3 0 12.5 0ZM14.8217 18.4265C14.6043 18.4862 14.4155 18.6196 14.2888 18.803L12.5 21.3926L10.7112 18.8031C10.5845 18.6196 10.3957 18.4862 10.1783 18.4265C6.59981 17.4438 3.90909 14.2116 3.90909 10.3065C3.90909 5.65733 7.76297 1.875 12.5 1.875C17.237 1.875 21.0909 5.65733 21.0909 10.3065C21.0909 14.2155 18.3962 17.4449 14.8217 18.4265Z" fill="#A6A6A6"/>
</svg>
