<svg width="24" height="24" viewBox="0 0 24 24" fill="none" xmlns="http://www.w3.org/2000/svg">
<path d="M18.8449 18.6439C18.1454 17.7458 17.601 16.7447 17.2326 15.6792C17.1626 15.4961 17.0217 15.3462 16.8395 15.2611C16.6572 15.1759 16.4478 15.1622 16.2553 15.2228C16.0628 15.2833 15.9021 15.4134 15.8071 15.5858C15.712 15.7581 15.6899 15.9592 15.7455 16.1469C16.0062 16.9114 16.3499 17.6472 16.7708 18.3422H3.23844C4.33931 16.5081 4.91717 14.426 4.91335 12.3072V10.4212C4.91209 9.31928 5.29833 8.24946 6.00905 7.38632C6.71977 6.52319 7.71301 5.9177 8.8267 5.66865C9.21012 5.57204 9.60443 5.52137 10.0007 5.51778H10.1025C10.3078 5.54122 10.5145 5.48535 10.6773 5.36237C10.8401 5.23939 10.9458 5.05931 10.9712 4.86147C10.9855 4.76228 10.9791 4.66134 10.9525 4.56455C10.9259 4.46775 10.8795 4.37704 10.8161 4.29769C10.7527 4.21835 10.6736 4.15196 10.5833 4.10239C10.493 4.05283 10.3934 4.02109 10.2903 4.00902C9.83804 3.96345 9.38118 3.98636 8.93628 4.07692C8.87065 3.93664 8.83346 3.78557 8.8267 3.63183C8.8267 3.33172 8.95039 3.04391 9.17056 2.8317C9.39073 2.61949 9.68934 2.50027 10.0007 2.50027C10.1828 2.50142 10.3621 2.54283 10.5249 2.6213C10.6878 2.69977 10.8297 2.81322 10.9399 2.9529C10.9951 3.04457 11.0698 3.12399 11.159 3.18598C11.2482 3.24797 11.35 3.29115 11.4577 3.31269C11.5654 3.33422 11.6766 3.33364 11.784 3.31098C11.8915 3.28832 11.9928 3.24409 12.0813 3.18117C12.1698 3.11825 12.2436 3.03805 12.2978 2.94581C12.352 2.85357 12.3854 2.75135 12.3958 2.64582C12.4063 2.54029 12.3936 2.43382 12.3585 2.33335C12.3234 2.23289 12.2667 2.14067 12.1922 2.06273C11.802 1.55649 11.2362 1.20207 10.5978 1.06393C9.95939 0.925801 9.29073 1.01314 8.71348 1.31006C8.13623 1.60698 7.68874 2.09375 7.45241 2.68183C7.21607 3.26991 7.2066 3.92022 7.42572 4.51445C6.21593 4.99964 5.18269 5.81988 4.45681 6.87136C3.73093 7.92283 3.34504 9.15825 3.34801 10.4212V12.3072C3.35313 14.5931 2.58364 16.8181 1.15653 18.6439C1.06932 18.756 1.01622 18.8893 1.00316 19.0288C0.99011 19.1683 1.01763 19.3086 1.08263 19.4339C1.14763 19.5592 1.24755 19.6646 1.3712 19.7383C1.49484 19.8119 1.63732 19.8509 1.78267 19.8509H5.69602C5.69602 20.9513 6.14955 22.0067 6.95683 22.7848C7.76412 23.5629 8.85903 24 10.0007 24C11.1424 24 12.2373 23.5629 13.0446 22.7848C13.8519 22.0067 14.3054 20.9513 14.3054 19.8509H18.2187C18.3633 19.8505 18.5049 19.8115 18.6278 19.7383C18.7508 19.6651 18.8503 19.5604 18.9153 19.436C18.9812 19.3108 19.0096 19.1702 18.9971 19.0303C18.9847 18.8904 18.932 18.7565 18.8449 18.6439ZM10.0007 22.1141C9.34389 22.1115 8.70989 21.8816 8.21425 21.4662C7.71861 21.0507 7.39432 20.4775 7.30049 19.8509H12.7401C12.6453 20.484 12.3153 21.0623 11.8115 21.4786C11.3077 21.8948 10.6642 22.1206 10.0007 22.1141Z" fill="#767676"/>
<path d="M18 2C16.8133 2 15.6533 2.35189 14.6666 3.01118C13.6799 3.67047 12.9109 4.60754 12.4567 5.7039C12.0026 6.80025 11.8838 8.00665 12.1153 9.17054C12.3468 10.3344 12.9182 11.4035 13.7574 12.2426C14.5965 13.0818 15.6656 13.6532 16.8295 13.8847C17.9933 14.1162 19.1997 13.9974 20.2961 13.5433C21.3925 13.0891 22.3295 12.3201 22.9888 11.3334C23.6481 10.3467 24 9.18669 24 8C24 6.4087 23.3679 4.88258 22.2426 3.75736C21.1174 2.63214 19.5913 2 18 2ZM18.9375 11H17.0625C16.8636 11 16.6728 10.921 16.5322 10.7803C16.3915 10.6397 16.3125 10.4489 16.3125 10.25C16.3125 10.0511 16.3915 9.86032 16.5322 9.71967C16.6728 9.57902 16.8636 9.5 17.0625 9.5H17.25V6.8525C17.0634 6.90575 16.8634 6.88461 16.6921 6.79351C16.5207 6.7024 16.3914 6.54844 16.3312 6.36396C16.271 6.17948 16.2846 5.97884 16.3693 5.80422C16.4539 5.62959 16.6029 5.49456 16.785 5.4275L17.7225 5.0525C17.8361 5.0072 17.959 4.99035 18.0806 5.00342C18.2021 5.01649 18.3187 5.05909 18.42 5.1275C18.5218 5.1963 18.6051 5.28904 18.6626 5.39759C18.7202 5.50613 18.7502 5.62715 18.75 5.75V9.5H18.9375C19.1364 9.5 19.3272 9.57902 19.4678 9.71967C19.6085 9.86032 19.6875 10.0511 19.6875 10.25C19.6875 10.4489 19.6085 10.6397 19.4678 10.7803C19.3272 10.921 19.1364 11 18.9375 11Z" fill="#5F76E8"/>
</svg>
