<svg width="18" height="19" viewBox="0 0 18 19" fill="none" xmlns="http://www.w3.org/2000/svg">
<g clip-path="url(#clip0_70_534)">
<path d="M9 18.5C13.9706 18.5 18 14.4706 18 9.5C18 4.52944 13.9706 0.5 9 0.5C4.02944 0.5 0 4.52944 0 9.5C0 14.4706 4.02944 18.5 9 18.5Z" fill="#F0F0F0"/>
<path d="M8.44411 9.52439H18C18 8.71428 17.8898 7.92947 17.6845 7.18292H8.44411V9.52439ZM8.44411 4.84148H16.6559C16.0959 3.94643 15.3808 3.15405 14.5428 2.5H8.44411V4.84148ZM8.84226 18.5C10.9975 18.5 12.9785 17.7699 14.5428 16.5488H3.14171C4.70604 17.7699 6.68701 18.5 8.84226 18.5ZM1.02864 14.2073H16.6559C17.1114 13.4791 17.4578 12.6906 17.6845 11.8658H0C0.226757 12.6906 0.573171 13.4791 1.02864 14.2073Z" fill="#D80027"/>
<path d="M4.16897 1.90548H4.98913L4.22624 2.45971L4.51765 3.35652L3.75479 2.80228L2.99194 3.35652L3.24366 2.58178C2.57072 3.14237 1.98273 3.79768 1.49808 4.52722H1.76087L1.27526 4.88001C1.19953 5.00639 1.12692 5.1346 1.0575 5.26455L1.28939 5.97826L0.856758 5.66393C0.748785 5.89253 0.650587 6.12563 0.56243 6.36259L0.81791 7.14896H1.76087L0.99798 7.7032L1.28939 8.6L0.526535 8.04576L0.0695742 8.37778C0.0232393 8.75006 3.40255e-06 9.12485 0 9.5H9V0.5C7.22208 0.5 5.56471 1.01574 4.16897 1.90548ZM4.51765 8.6L3.75479 8.04576L2.99194 8.6L3.28335 7.7032L2.52046 7.14896H3.46342L3.75479 6.25216L4.04617 7.14896H4.98913L4.22624 7.7032L4.51765 8.6ZM4.22624 5.08146L4.51765 5.97826L3.75479 5.42402L2.99194 5.97826L3.28335 5.08146L2.52046 4.52722H3.46342L3.75479 3.63042L4.04617 4.52722H4.98913L4.22624 5.08146ZM7.74591 8.6L6.98305 8.04576L6.22019 8.6L6.51161 7.7032L5.74871 7.14896H6.69168L6.98305 6.25216L7.27443 7.14896H8.21739L7.4545 7.7032L7.74591 8.6ZM7.4545 5.08146L7.74591 5.97826L6.98305 5.42402L6.22019 5.97826L6.51161 5.08146L5.74871 4.52722H6.69168L6.98305 3.63042L7.27443 4.52722H8.21739L7.4545 5.08146ZM7.4545 2.45971L7.74591 3.35652L6.98305 2.80228L6.22019 3.35652L6.51161 2.45971L5.74871 1.90548H6.69168L6.98305 1.00868L7.27443 1.90548H8.21739L7.4545 2.45971Z" fill="#0052B4"/>
</g>
<defs>
<clipPath id="clip0_70_534">
<rect width="18" height="18" fill="white" transform="translate(0 0.5)"/>
</clipPath>
</defs>
</svg>
