<svg width="20" height="21" viewBox="0 0 20 21" fill="none" xmlns="http://www.w3.org/2000/svg">
<path d="M6.69918 4.85137C6.82462 4.40781 6.86017 3.94366 6.80375 3.48617C6.70937 2.72699 6.37336 2.03961 5.83207 1.49832C5.68977 1.35615 5.53527 1.22675 5.37035 1.1116C4.7975 0.71164 4.12332 0.500117 3.42082 0.5C3.21919 0.500011 3.01796 0.517669 2.81941 0.552773C2.61082 0.589727 2.4434 0.731016 2.37168 0.930625C2.29965 1.13098 2.33891 1.3473 2.47668 1.5093L3.56941 2.79426L2.2943 4.06937L1.00937 2.97664C0.847304 2.83883 0.630937 2.79961 0.430586 2.87168C0.230937 2.94351 0.0896875 3.11094 0.0527734 3.31941C0.0176573 3.51794 -1.30813e-06 3.71917 0 3.92078C0.00015625 4.62332 0.21164 5.2975 0.611601 5.87035C0.726754 6.03527 0.856157 6.18977 0.99832 6.33207C1.53961 6.87336 2.22699 7.20937 2.98617 7.30375C3.44366 7.36015 3.9078 7.32459 4.35137 7.19918L6.96164 9.80945L9.30945 7.46164L6.69918 4.85137ZM13.3008 16.1486C13.1754 16.5922 13.1398 17.0563 13.1962 17.5138C13.2906 18.273 13.6266 18.9604 14.1679 19.5017C14.3102 19.6438 14.4647 19.7732 14.6296 19.8884C15.2025 20.2883 15.8767 20.4999 16.5792 20.5C16.7808 20.5 16.982 20.4823 17.1806 20.4472C17.3891 20.4103 17.5565 20.2691 17.6283 20.0694C17.7004 19.8691 17.6612 19.6527 17.5233 19.4907L16.4306 18.2057L17.7057 16.9306L18.9907 18.0233C19.1527 18.1611 19.3691 18.2004 19.5694 18.1284C19.769 18.0566 19.9103 17.8892 19.9472 17.6806C19.9823 17.482 20 17.2808 20 17.0792C19.9999 16.3767 19.7883 15.7025 19.3884 15.1296C19.2732 14.9647 19.1438 14.8102 19.0017 14.6679C18.4604 14.1266 17.773 13.7906 17.0138 13.6962C16.5563 13.6398 16.0922 13.6754 15.6486 13.8008L13.0384 11.1905L10.6905 13.5384L13.3008 16.1486ZM19.8274 1.9975L18.5025 0.672578C18.3068 0.476875 18.007 0.443984 17.7736 0.592578L15.0389 2.33277C14.9724 2.37533 14.915 2.43086 14.8704 2.49604C14.8257 2.56123 14.7946 2.63474 14.779 2.71219L14.5447 3.88367L7.38375 11.0446L9.45535 13.1162L16.6163 5.95527L17.7878 5.72097C17.8653 5.70532 17.9388 5.67423 18.0039 5.62956C18.0691 5.58489 18.1246 5.52755 18.1672 5.46097L19.9073 2.72644C20.056 2.49297 20.0232 2.1932 19.8274 1.9975ZM9.80066 15.1187L5.38125 10.6993C5.15242 10.4705 4.78144 10.4705 4.55261 10.6993C4.32379 10.9282 4.32379 11.2991 4.55261 11.528L4.69074 11.6661L0.856757 15.5001C-0.285547 16.6424 -0.285547 18.501 0.856757 19.6433C1.99906 20.7856 3.85765 20.7856 4.99996 19.6433L8.83394 15.8093L8.97207 15.9474C9.20089 16.1762 9.57187 16.1762 9.8007 15.9474C10.0294 15.7186 10.0294 15.3476 9.80066 15.1187ZM5.89465 15.434L2.91297 18.4157C2.68414 18.6445 2.31316 18.6445 2.08434 18.4157C1.85551 18.1869 1.85551 17.8159 2.08434 17.5871L5.06601 14.6054C5.29484 14.3766 5.66582 14.3766 5.89465 14.6054C6.12343 14.8342 6.12343 15.2052 5.89465 15.434Z" fill="white"/>
</svg>
