<svg width="15" height="15" viewBox="0 0 15 15" fill="none" xmlns="http://www.w3.org/2000/svg">
<g clip-path="url(#clip0_70_509)">
<path d="M6.5 13C10.0898 13 13 10.0899 13 6.49998C13 2.91011 10.0899 0 6.5 0C2.91013 0 0 2.91014 0 6.50002C0 10.0899 2.91017 13 6.5 13ZM6.5 1.85716C9.06419 1.85716 11.1428 3.93582 11.1428 6.50002C11.1428 9.06421 9.06419 11.1429 6.5 11.1429C3.93581 11.1429 1.85715 9.06421 1.85715 6.50002C1.85715 3.93582 3.93585 1.85716 6.5 1.85716Z" fill="#767676"/>
<path d="M14.1311 15C14.2448 15.0006 14.3575 14.9787 14.4628 14.9355C14.568 14.8923 14.6637 14.8286 14.7445 14.7481C15.0832 14.4103 15.0855 13.8604 14.7495 13.5198L14.7445 13.5148L11.4962 10.2492C11.1455 9.90863 10.5866 9.91836 10.2479 10.2709C9.90911 10.6235 9.91879 11.1854 10.2695 11.5259L13.5177 14.7481C13.5985 14.8286 13.6942 14.8923 13.7994 14.9355C13.9047 14.9787 14.0174 15.0006 14.1311 15Z" fill="#767676"/>
</g>
<defs>
<clipPath id="clip0_70_509">
<rect width="15" height="15" fill="white" transform="matrix(-1 0 0 1 15 0)"/>
</clipPath>
</defs>
</svg>
