<svg width="24" height="24" viewBox="0 0 24 24" fill="none" xmlns="http://www.w3.org/2000/svg">
<rect width="24" height="24" transform="matrix(-1 0 0 1 24 0)" fill="white"/>
<path d="M9 22.75H15C20.43 22.75 22.75 20.43 22.75 15V9C22.75 3.57 20.43 1.25 15 1.25H9C3.57 1.25 1.25 3.57 1.25 9V15C1.25 20.43 3.57 22.75 9 22.75ZM15 2.75C19.61 2.75 21.25 4.39 21.25 9V15C21.25 19.61 19.61 21.25 15 21.25H9C4.39 21.25 2.75 19.61 2.75 15V9C2.75 4.39 4.39 2.75 9 2.75H15Z" fill="#7C8798"/>
<path d="M10.7401 16.28C10.9301 16.28 11.1201 16.21 11.2701 16.06L14.8001 12.53C15.0901 12.24 15.0901 11.76 14.8001 11.47L11.2701 7.93997C10.9801 7.64997 10.5001 7.64997 10.2101 7.93997C9.92008 8.22997 9.92008 8.70997 10.2101 8.99997L13.2101 12L10.2101 15C9.92008 15.29 9.92008 15.77 10.2101 16.06C10.3501 16.21 10.5401 16.28 10.7401 16.28Z" fill="#7C8798"/>
</svg>
