<svg width="24" height="24" viewBox="0 0 24 24" fill="none" xmlns="http://www.w3.org/2000/svg">
<rect width="24" height="24" fill="white"/>
<path d="M15 22.75H9C3.57 22.75 1.25 20.43 1.25 15V9C1.25 3.57 3.57 1.25 9 1.25H15C20.43 1.25 22.75 3.57 22.75 9V15C22.75 20.43 20.43 22.75 15 22.75ZM9 2.75C4.39 2.75 2.75 4.39 2.75 9V15C2.75 19.61 4.39 21.25 9 21.25H15C19.61 21.25 21.25 19.61 21.25 15V9C21.25 4.39 19.61 2.75 15 2.75H9Z" fill="#7C8798"/>
<path d="M10.7402 16.28C10.5502 16.28 10.3602 16.21 10.2102 16.06C9.92018 15.77 9.92018 15.29 10.2102 15L13.2102 12L10.2102 8.99997C9.92018 8.70997 9.92018 8.22997 10.2102 7.93997C10.5002 7.64997 10.9802 7.64997 11.2702 7.93997L14.8002 11.47C15.0902 11.76 15.0902 12.24 14.8002 12.53L11.2702 16.06C11.1202 16.21 10.9302 16.28 10.7402 16.28Z" fill="#7C8798"/>
</svg>
