<svg width="50" height="51" viewBox="0 0 50 51" fill="none" xmlns="http://www.w3.org/2000/svg">
<rect y="0.140476" width="50" height="50" rx="4" fill="#1CA96B"/>
<path d="M37.0176 35.4559V36.6747H34V34.8875C34 34.7293 33.8711 34.6004 33.7129 34.6004C33.5547 34.6004 33.4258 34.7293 33.4258 34.8875V36.6747H26.6043L25.9492 32.7723L26.2352 31.7645L26.7461 32.1278C26.8516 32.2157 26.9805 32.2625 27.1152 32.2625C27.1562 32.2625 27.2031 32.2567 27.2559 32.245C27.4316 32.2039 27.5781 32.0985 27.6543 31.9403L29.2662 29.5497L33.1797 30.534C35.4414 31.1024 37.0176 33.1297 37.0176 35.4559ZM31.7559 34.0497V33.1825C31.7559 32.9422 31.5508 32.7372 31.3105 32.7372H28.9199C28.6797 32.7372 28.4746 32.9422 28.4746 33.1825V34.0497C28.4746 34.2899 28.6797 34.495 28.9199 34.495H31.3105C31.5566 34.495 31.7559 34.2957 31.7559 34.0497Z" fill="white"/>
<path d="M29.049 33.3055H31.1818V33.9266H29.049V33.3055ZM30.0715 15.4713C30.5812 15.7051 30.9809 15.8973 31.1994 16.0028C30.9867 16.4381 30.7992 16.8032 30.6357 17.1073C30.249 16.8166 30.0158 16.3614 30.0158 15.868C30.0158 15.735 30.0346 15.602 30.0715 15.4713ZM30.3539 17.6159C30.092 18.0711 29.9215 18.3178 29.8336 18.4344H20.1621C20.0736 18.3149 19.9037 18.0682 19.6465 17.6182C20.2049 17.2215 20.5412 16.5829 20.5412 15.8856C20.5412 15.6665 20.5078 15.4532 20.4422 15.2475C21.777 14.6534 23.6197 13.901 25.0002 13.6063C26.376 13.8911 28.2006 14.6346 29.5471 15.234C29.4814 15.4403 29.4475 15.6541 29.4475 15.8739C29.4475 16.5811 29.7885 17.2245 30.3539 17.6159ZM26.26 15.909V15.329C26.26 15.2118 26.1896 15.1122 26.0783 15.0653L25.1057 14.6903C25.0354 14.661 24.965 14.661 24.8947 14.6903L23.9221 15.0653C23.8107 15.1063 23.7404 15.2118 23.7404 15.329V15.909C23.7404 16.6473 24.1271 17.2391 24.8654 17.6141C24.9064 17.6375 24.9475 17.6493 24.9943 17.6493C25.0412 17.6493 25.0822 17.6375 25.135 17.6141C25.8732 17.245 26.26 16.6532 26.26 15.909ZM29.6139 20.0135L29.4826 22.618C29.4141 24.1725 28.5598 25.5096 27.3105 26.2579C26.6338 26.6627 25.841 26.8954 24.9943 26.8954C24.1699 26.8954 23.3953 26.6739 22.7297 26.286C22.7127 26.2725 22.6939 26.2614 22.674 26.2526C22.391 26.0827 22.1285 25.8823 21.8912 25.6555C21.0832 24.8856 20.5617 23.8163 20.5061 22.618L20.366 19.8366C20.6484 20.1442 21.0129 20.4377 21.4377 20.6903C22.4514 21.2997 23.7111 21.6336 24.9943 21.6336C27.1172 21.6336 28.7449 21.0454 29.6139 20.0135Z" fill="white"/>
<path d="M20.4537 19.0145H29.5721C29.026 20.3 27.3525 21.0536 25 21.0536C22.7383 21.0536 20.991 19.9602 20.4537 19.0145ZM27.1621 26.9856V28.6409L24.9994 30.1848L22.8437 28.6514V26.9932C23.4971 27.2991 24.226 27.4696 24.9941 27.4696C25.7693 27.4696 26.5047 27.2967 27.1621 26.9856ZM27.0801 31.6649L26.2363 31.0643L25.4951 30.5375L27.4967 29.1049L28.6744 29.4008L27.168 31.6356C27.1562 31.6473 27.1504 31.6649 27.1445 31.6766C27.1445 31.6766 27.1387 31.6883 27.127 31.6883C27.1152 31.6883 27.1035 31.6825 27.1035 31.6825C27.0918 31.6766 27.0859 31.6708 27.0801 31.6649ZM25.4084 33.036L26.0201 36.6747H23.9588L24.6408 33.036H25.4084ZM25.0035 30.8885L25.7348 31.4088L25.4365 32.4618H24.6145L24.2939 31.3942L25.0035 30.8885ZM25.6797 15.5282V15.909C25.6797 16.3836 25.4512 16.7645 24.9941 17.034C24.5371 16.7645 24.3086 16.3895 24.3086 15.909V15.5282L24.9941 15.2645L25.6797 15.5282ZM22.8496 31.6766L22.832 31.6415L21.3168 29.4043L22.498 29.1073L24.5072 30.5358L23.79 31.0479L22.9082 31.6766C22.9023 31.6825 22.8965 31.6825 22.8906 31.6883C22.8848 31.6942 22.873 31.6942 22.8672 31.6942C22.8555 31.6883 22.8555 31.6825 22.8496 31.6766ZM18.8066 33.3055H20.9395V33.9266H18.8066V33.3055ZM19.9182 15.4836C19.9545 15.612 19.9727 15.745 19.9727 15.8797C19.9727 16.3672 19.7447 16.8219 19.3662 17.1114C19.2039 16.8079 19.0176 16.4434 18.8066 16.0086C18.9854 15.9219 19.3855 15.728 19.9182 15.4836Z" fill="white"/>
<path d="M23.8006 31.7457L24.1094 32.7665L23.3752 36.6747H16.5625V34.8875C16.5625 34.7293 16.4336 34.6004 16.2754 34.6004C16.1172 34.6004 15.9883 34.7293 15.9883 34.8875V36.6747H12.9824V35.4559C12.9824 33.1297 14.5645 31.1024 16.8203 30.534L20.725 29.5532L22.3516 31.952C22.4336 32.1043 22.5801 32.2098 22.75 32.2508C22.7969 32.2567 22.832 32.2625 22.8789 32.2625C23.0137 32.2625 23.1426 32.2274 23.248 32.1395L23.8006 31.7457ZM21.5137 34.0497V33.1825C21.5137 32.9422 21.3086 32.7372 21.0684 32.7372H18.6777C18.4375 32.7372 18.2324 32.9422 18.2324 33.1825V34.0497C18.2324 34.2899 18.4375 34.495 18.6777 34.495H21.0625C21.3145 34.495 21.5078 34.2957 21.5137 34.0497Z" fill="white"/>
</svg>
