<svg width="16" height="16" viewBox="0 0 16 16" fill="none" xmlns="http://www.w3.org/2000/svg">
<path fill-rule="evenodd" clip-rule="evenodd" d="M7.33314 1.30506H4.0045V0.697855C4.0045 0.52108 3.93428 0.351547 3.80928 0.226548C3.68428 0.10155 3.51475 0.0313268 3.33797 0.0313268C3.1612 0.0313268 2.99166 0.10155 2.86667 0.226548C2.74167 0.351547 2.67144 0.52108 2.67144 0.697855V1.30506H1.99958C1.46926 1.30506 0.960659 1.51573 0.585665 1.89073C0.21067 2.26572 0 2.77432 0 3.30465V14.0004C0 14.5307 0.21067 15.0393 0.585665 15.4143C0.960659 15.7893 1.46926 16 1.99958 16H13.9998C14.5303 16 15.0389 15.7894 15.4135 15.4141C15.5993 15.2286 15.7467 15.0082 15.8472 14.7656C15.9477 14.523 15.9994 14.263 15.9993 14.0004V3.30465C15.9993 2.77409 15.7887 2.26553 15.4135 1.89094C15.2279 1.70513 15.0075 1.55774 14.765 1.45721C14.5224 1.35667 14.2623 1.30497 13.9998 1.30506H13.3359V0.666528C13.3359 0.489754 13.2657 0.32022 13.1407 0.195222C13.0157 0.0702234 12.8461 0 12.6694 0C12.4926 0 12.3231 0.0702234 12.1981 0.195222C12.0731 0.32022 12.0028 0.489754 12.0028 0.666528V1.30506H8.66619V0.666528C8.66619 0.489754 8.59597 0.32022 8.47097 0.195222C8.34597 0.0702234 8.17644 0 7.99967 0C7.82289 0 7.65336 0.0702234 7.52836 0.195222C7.40336 0.32022 7.33314 0.489754 7.33314 0.666528V1.30506ZM14.6663 6.67128V14.0004C14.6665 14.088 14.6495 14.1748 14.6161 14.2558C14.5827 14.3368 14.5336 14.4104 14.4716 14.4723C14.4097 14.5343 14.3361 14.5833 14.2551 14.6167C14.1741 14.6501 14.0874 14.6672 13.9998 14.6669H1.99958C1.91198 14.6672 1.82519 14.6501 1.7442 14.6167C1.66322 14.5833 1.58963 14.5343 1.52769 14.4723C1.46574 14.4104 1.41666 14.3368 1.38325 14.2558C1.34985 14.1748 1.33279 14.088 1.33306 14.0004V6.67128H14.6663ZM13.3359 2.63812V3.32997C13.3359 3.50675 13.2657 3.67628 13.1407 3.80128C13.0157 3.92628 12.8461 3.9965 12.6694 3.9965C12.4926 3.9965 12.3231 3.92628 12.1981 3.80128C12.0731 3.67628 12.0028 3.50675 12.0028 3.32997V2.63812H8.66619V3.35797C8.66619 3.53474 8.59597 3.70428 8.47097 3.82927C8.34597 3.95427 8.17644 4.0245 7.99967 4.0245C7.82289 4.0245 7.65336 3.95427 7.52836 3.82927C7.40336 3.70428 7.33314 3.53474 7.33314 3.35797V2.63812H4.0045V3.35797C4.0045 3.53474 3.93428 3.70428 3.80928 3.82927C3.68428 3.95427 3.51475 4.0245 3.33797 4.0245C3.1612 4.0245 2.99166 3.95427 2.86667 3.82927C2.74167 3.70428 2.67144 3.53474 2.67144 3.35797V2.63812H1.99958C1.91198 2.63785 1.82519 2.65491 1.7442 2.68832C1.66322 2.72172 1.58963 2.7708 1.52769 2.83275C1.46574 2.8947 1.41666 2.96828 1.38325 3.04926C1.34985 3.13025 1.33279 3.21704 1.33306 3.30465V5.33822H14.6663V3.30465C14.6665 3.21704 14.6495 3.13025 14.6161 3.04926C14.5827 2.96828 14.5336 2.8947 14.4716 2.83275C14.4097 2.7708 14.3361 2.72172 14.2551 2.68832C14.1741 2.65491 14.0874 2.63785 13.9998 2.63812H13.3359Z" fill="#5F76E8"/>
<path fill-rule="evenodd" clip-rule="evenodd" d="M3.33789 8.65283H4.67095V9.98589H3.33789V8.65283ZM3.33789 11.3309H4.67095V12.664H3.33789V11.3309ZM6.004 8.65283H7.33706V9.98589H6.004V8.65283ZM6.004 11.3309H7.33706V12.664H6.004V11.3309ZM8.67011 8.65283H10.0032V9.98589H8.67011V8.65283ZM8.67011 11.3309H10.0032V12.664H8.67011V11.3309ZM11.3362 8.65283H12.6693V9.98589H11.3362V8.65283ZM11.3362 11.3309H12.6693V12.664H11.3362V11.3309Z" fill="#5F76E8"/>
</svg>
