<svg width="19" height="24" viewBox="0 0 19 24" fill="none" xmlns="http://www.w3.org/2000/svg">
<path d="M9.47656 19.7164C9.72132 19.7164 9.97093 19.7082 10.1926 19.7009C10.3214 19.6967 10.4407 19.6927 10.5442 19.6909C10.856 19.6854 11.0704 19.6967 11.2246 19.736C11.36 19.7706 11.4124 19.8167 11.4474 19.8717C11.4946 19.946 11.553 20.1076 11.553 20.4514C11.553 21.7275 10.5167 22.7634 9.23652 22.7634C7.95631 22.7634 6.91992 21.7275 6.91992 20.4514C6.91992 20.1429 6.99337 20.003 7.05503 19.9325C7.12059 19.8576 7.23749 19.7872 7.46351 19.7417C7.69251 19.6956 7.98055 19.6855 8.33498 19.6909C8.46268 19.6929 8.6063 19.6972 8.75691 19.7018C8.9911 19.7088 9.24218 19.7164 9.47656 19.7164Z" stroke="#B8C3D5"/>
<path d="M7.96613 2.65923L7.96613 2.65925C8.10698 3.35898 8.78941 3.813 9.49165 3.67223L7.96613 2.65923ZM7.96613 2.65923C7.82533 1.95991 8.27905 1.27813 8.98089 1.13729L7.96613 2.65923ZM8.98091 1.13728C9.68292 0.99648 10.3655 1.45049 10.5065 2.15015L8.98091 1.13728ZM10.5065 2.15025C10.6471 2.84968 10.1934 3.53139 9.4917 3.67222L10.5065 2.15025Z" stroke="#B8C3D5" stroke-width="0.75"/>
<path d="M1.16436 16.3375L1.16419 16.3376C0.956904 16.5044 0.789641 16.7156 0.6747 16.9556L0.223758 16.7396L0.674699 16.9556C0.559775 17.1955 0.50008 17.4581 0.5 17.7242L1.16436 16.3375ZM1.16436 16.3375L1.61249 15.9765C2.76695 15.0469 3.43852 13.6454 3.43852 12.1641V9.79253C3.43852 6.57023 6.05506 3.95676 9.28457 3.95676C12.5139 3.95676 15.1306 6.57023 15.1306 9.79253V12.208V12.2081M1.16436 16.3375L15.1306 12.2081M15.1306 12.2081C15.1307 12.9262 15.2888 13.6354 15.5937 14.2855C15.8986 14.9356 16.3428 15.5106 16.8947 15.9698C16.8947 15.9699 16.8948 15.9699 16.8948 15.9699L17.3312 16.3331L17.3313 16.3332M15.1306 12.2081L17.3313 16.3332M17.3313 16.3332C17.532 16.5002 17.6936 16.7094 17.8045 16.9459C17.9154 17.1823 17.9729 17.4403 17.973 17.7014C17.973 17.7015 17.973 17.7015 17.973 17.7015V17.7242C17.973 18.6935 17.1856 19.4808 16.2125 19.4808H15.7125M17.3313 16.3332L15.7125 19.4808M15.7125 19.4808V19.4809M15.7125 19.4808V19.4809M15.7125 19.4809H2.26051C1.28739 19.4809 0.500064 18.6936 0.5 17.7243L15.7125 19.4809Z" stroke="#B8C3D5"/>
</svg>
