<svg width="22" height="23" viewBox="0 0 22 23" fill="none" xmlns="http://www.w3.org/2000/svg">
<g clip-path="url(#clip0_90_471)">
<path d="M11.0003 0.140472C6.95681 0.140472 3.66699 3.43029 3.66699 7.47382C3.66699 8.68769 3.97048 9.89124 4.54742 10.9588L10.5993 21.9041C10.6799 22.0501 10.8334 22.1405 11.0003 22.1405C11.1673 22.1405 11.3208 22.0501 11.4014 21.9041L17.4555 10.9551C18.0302 9.89124 18.3337 8.68764 18.3337 7.47378C18.3337 3.43029 15.0439 0.140472 11.0003 0.140472ZM11.0003 11.1405C8.97857 11.1405 7.33369 9.49559 7.33369 7.47382C7.33369 5.45205 8.97857 3.80717 11.0003 3.80717C13.0221 3.80717 14.667 5.45205 14.667 7.47382C14.667 9.49559 13.0221 11.1405 11.0003 11.1405Z" fill="#5F76E8"/>
</g>
<defs>
<clipPath id="clip0_90_471">
<rect width="22" height="22" fill="white" transform="translate(0 0.140472)"/>
</clipPath>
</defs>
</svg>
