<svg width="15" height="16" viewBox="0 0 15 16" fill="none" xmlns="http://www.w3.org/2000/svg">
<g clip-path="url(#clip0_36_17)">
<path d="M8.44 13.1563C4.81697 13.1563 1.87988 10.2192 1.87988 6.59615C1.87988 2.97307 4.81693 0.0360565 8.44 0.0360565C12.0631 0.0360565 15.0001 2.97311 15.0001 6.59618C15.0001 10.2192 12.063 13.1563 8.44 13.1563ZM8.44 1.91039C5.8521 1.91039 3.75421 4.00827 3.75421 6.59618C3.75421 9.18408 5.8521 11.282 8.44 11.282C11.0279 11.282 13.1258 9.18408 13.1258 6.59618C13.1258 4.00827 11.0279 1.91039 8.44 1.91039Z" fill="white"/>
<path d="M0.942595 15.0306C0.819258 15.0313 0.696993 15.0077 0.582812 14.961C0.468631 14.9144 0.36478 14.8457 0.277216 14.7588C-0.090279 14.3943 -0.0927016 13.801 0.271789 13.4335L0.277216 13.428L3.80093 9.90434C4.18134 9.53684 4.78764 9.54734 5.15514 9.92776C5.52263 10.3082 5.51213 10.9145 5.13172 11.282L1.60797 14.7588C1.52041 14.8457 1.41656 14.9144 1.30238 14.961C1.1882 15.0077 1.06593 15.0313 0.942595 15.0306Z" fill="white"/>
</g>
<defs>
<clipPath id="clip0_36_17">
<rect width="15" height="15" fill="white" transform="translate(0 0.0333405)"/>
</clipPath>
</defs>
</svg>
