<svg width="24" height="24" viewBox="0 0 24 24" fill="none" xmlns="http://www.w3.org/2000/svg">
<path d="M4 19.75H20C20.7285 19.7474 21.4265 19.4568 21.9416 18.9416C22.4568 18.4265 22.7474 17.7285 22.75 17V7C22.7474 6.27147 22.4568 5.57352 21.9416 5.05837C21.4265 4.54321 20.7285 4.25263 20 4.25L4 4.25C3.27147 4.25263 2.57352 4.54321 2.05837 5.05837C1.54321 5.57352 1.25263 6.27147 1.25 7V17C1.25263 17.7285 1.54321 18.4265 2.05837 18.9416C2.57352 19.4568 3.27147 19.7474 4 19.75ZM20 5.75C20.3315 5.75 20.6495 5.8817 20.8839 6.11612C21.1183 6.35054 21.25 6.66848 21.25 7V17C21.25 17.3315 21.1183 17.6495 20.8839 17.8839C20.6495 18.1183 20.3315 18.25 20 18.25H4C3.66848 18.25 3.35054 18.1183 3.11612 17.8839C2.88169 17.6495 2.75 17.3315 2.75 17V7C2.75 6.66848 2.88169 6.35054 3.11612 6.11612C3.35054 5.8817 3.66848 5.75 4 5.75L20 5.75Z" fill="#5F76E8"/>
<path d="M12.0003 13.35C12.5806 13.35 13.1503 13.1946 13.6503 12.9L22.3803 7.70999C22.5434 7.60834 22.6619 7.44866 22.712 7.26311C22.7621 7.07756 22.74 6.87993 22.6503 6.70999C22.5504 6.54479 22.39 6.42514 22.2032 6.37657C22.0163 6.32799 21.8179 6.35434 21.6503 6.44999L12.9103 11.63C12.6452 11.7917 12.3407 11.8772 12.0303 11.8772C11.7198 11.8772 11.4153 11.7917 11.1503 11.63L2.41027 6.44999C2.2426 6.35434 2.0442 6.32799 1.85738 6.37657C1.67056 6.42514 1.51011 6.54479 1.41027 6.70999C1.32049 6.87993 1.29843 7.07756 1.34853 7.26311C1.39862 7.44866 1.51716 7.60834 1.68027 7.70999L10.3503 12.9C10.8502 13.1946 11.42 13.35 12.0003 13.35Z" fill="#5F76E8"/>
</svg>
