<svg width="22" height="22" viewBox="0 0 22 22" fill="none" xmlns="http://www.w3.org/2000/svg">
<path d="M11.0003 0C6.95681 0 3.66699 3.28982 3.66699 7.33335C3.66699 8.54722 3.97048 9.75077 4.54742 10.8183L10.5993 21.7637C10.6799 21.9096 10.8334 22 11.0003 22C11.1673 22 11.3208 21.9096 11.4014 21.7637L17.4555 10.8147C18.0302 9.75077 18.3337 8.54717 18.3337 7.3333C18.3337 3.28982 15.0439 0 11.0003 0ZM11.0003 11C8.97857 11 7.33369 9.35511 7.33369 7.33335C7.33369 5.31158 8.97857 3.6667 11.0003 3.6667C13.0221 3.6667 14.667 5.31158 14.667 7.33335C14.667 9.35511 13.0221 11 11.0003 11Z" fill="#5F76E8"/>
</svg>
