<svg width="16" height="16" viewBox="0 0 16 16" fill="none" xmlns="http://www.w3.org/2000/svg">
<g clip-path="url(#clip0_90_480)">
<path d="M6.65082 1.98421C10.2739 1.98421 13.2109 4.92126 13.2109 8.54433C13.2109 12.1674 10.2739 15.1044 6.65082 15.1044C3.02775 15.1044 0.0906944 12.1674 0.0906944 8.54429C0.0906944 4.92122 3.02778 1.98421 6.65082 1.98421ZM6.65082 13.2301C9.23872 13.2301 11.3366 11.1322 11.3366 8.54429C11.3366 5.95639 9.23872 3.8585 6.65082 3.8585C4.06291 3.8585 1.96502 5.95639 1.96502 8.54429C1.96502 11.1322 4.06295 13.2301 6.65082 13.2301Z" fill="white"/>
<path d="M14.1482 0.109878C14.2716 0.109162 14.3938 0.132802 14.508 0.179441C14.6222 0.22608 14.726 0.294801 14.8136 0.381663C15.1811 0.746154 15.1835 1.3395 14.819 1.707L14.8136 1.71242L11.2899 5.23613C10.9095 5.60363 10.3032 5.59313 9.93568 5.21272C9.56819 4.8323 9.57869 4.226 9.9591 3.85851L13.4828 0.381663C13.5704 0.294801 13.6743 0.22608 13.7884 0.179441C13.9026 0.132802 14.0249 0.109162 14.1482 0.109878Z" fill="white"/>
</g>
<defs>
<clipPath id="clip0_90_480">
<rect width="15" height="15" fill="white" transform="matrix(-1 0 0 -1 15.0908 15.1071)"/>
</clipPath>
</defs>
</svg>
