<svg width="24" height="24" viewBox="0 0 24 24" fill="none" xmlns="http://www.w3.org/2000/svg">
<path d="M20 19.75H4C3.27147 19.7474 2.57352 19.4568 2.05837 18.9416C1.54321 18.4265 1.25263 17.7285 1.25 17V7C1.25263 6.27147 1.54321 5.57352 2.05837 5.05837C2.57352 4.54321 3.27147 4.25263 4 4.25H20C20.7285 4.25263 21.4265 4.54321 21.9416 5.05837C22.4568 5.57352 22.7474 6.27147 22.75 7V17C22.7474 17.7285 22.4568 18.4265 21.9416 18.9416C21.4265 19.4568 20.7285 19.7474 20 19.75ZM4 5.75C3.66848 5.75 3.35054 5.8817 3.11612 6.11612C2.8817 6.35054 2.75 6.66848 2.75 7V17C2.75 17.3315 2.8817 17.6495 3.11612 17.8839C3.35054 18.1183 3.66848 18.25 4 18.25H20C20.3315 18.25 20.6495 18.1183 20.8839 17.8839C21.1183 17.6495 21.25 17.3315 21.25 17V7C21.25 6.66848 21.1183 6.35054 20.8839 6.11612C20.6495 5.8817 20.3315 5.75 20 5.75H4Z" fill="#5F76E8"/>
<path d="M12.0002 13.35C11.4199 13.35 10.8502 13.1946 10.3502 12.9L1.62022 7.70999C1.45712 7.60834 1.33858 7.44866 1.28848 7.26311C1.23838 7.07756 1.26044 6.87993 1.35022 6.70999C1.45007 6.54479 1.61051 6.42514 1.79733 6.37657C1.98415 6.32799 2.18256 6.35434 2.35022 6.44999L11.0902 11.63C11.3553 11.7917 11.6598 11.8772 11.9702 11.8772C12.2807 11.8772 12.5852 11.7917 12.8502 11.63L21.5902 6.44999C21.7579 6.35434 21.9563 6.32799 22.1431 6.37657C22.3299 6.42514 22.4904 6.54479 22.5902 6.70999C22.68 6.87993 22.7021 7.07756 22.652 7.26311C22.6019 7.44866 22.4833 7.60834 22.3202 7.70999L13.6502 12.9C13.1503 13.1946 12.5805 13.35 12.0002 13.35Z" fill="#5F76E8"/>
</svg>
