<svg width="14" height="18" viewBox="0 0 14 18" fill="none" xmlns="http://www.w3.org/2000/svg">
<path d="M13.4069 3.50859L10.0012 0.102973C9.93529 0.0370416 9.84587 1.26455e-06 9.75263 0L1.52188 0C1.11839 0.000455945 0.73156 0.160943 0.446251 0.446252C0.160943 0.73156 0.000455945 1.11839 0 1.52188V16.4781C0.000455945 16.8816 0.160943 17.2684 0.446251 17.5537C0.73156 17.8391 1.11839 17.9995 1.52188 18H11.9879C12.3914 17.9995 12.7782 17.8391 13.0635 17.5537C13.3488 17.2684 13.5093 16.8816 13.5098 16.4781V3.75725C13.5098 3.71108 13.5007 3.66535 13.4831 3.62269C13.4654 3.58002 13.4395 3.54125 13.4069 3.50859ZM10.1042 1.20034L12.3096 3.40569H10.9229C10.7059 3.40544 10.4978 3.31909 10.3443 3.16559C10.1908 3.01209 10.1044 2.80398 10.1042 2.5869V1.20034ZM11.988 17.2969H1.52195C1.30487 17.2966 1.09674 17.2103 0.943235 17.0568C0.789728 16.9033 0.703376 16.6952 0.703125 16.4781V1.52188C0.703376 1.30481 0.789718 1.0967 0.94321 0.94321C1.0967 0.789718 1.30481 0.703376 1.52188 0.703125H9.40106V2.5869C9.40151 2.9904 9.56199 3.37724 9.8473 3.66255C10.1326 3.94787 10.5194 4.10836 10.9229 4.10882H12.8067V16.4781C12.8065 16.6952 12.7201 16.9033 12.5666 17.0568C12.4131 17.2103 12.205 17.2966 11.988 17.2969ZM11.3171 6.55636C11.3171 6.6496 11.28 6.73902 11.2141 6.80495C11.1482 6.87088 11.0588 6.90792 10.9655 6.90792H2.54433C2.45109 6.90792 2.36167 6.87088 2.29574 6.80495C2.22981 6.73902 2.19277 6.6496 2.19277 6.55636C2.19277 6.46312 2.22981 6.3737 2.29574 6.30777C2.36167 6.24184 2.45109 6.2048 2.54433 6.2048H10.9655C11.0588 6.2048 11.1482 6.24184 11.2141 6.30777C11.28 6.3737 11.3171 6.46312 11.3171 6.55636ZM11.3171 9.28863C11.3171 9.38187 11.28 9.47129 11.2141 9.53722C11.1482 9.60316 11.0588 9.64019 10.9655 9.64019H2.54433C2.45109 9.64019 2.36167 9.60316 2.29574 9.53722C2.22981 9.47129 2.19277 9.38187 2.19277 9.28863C2.19277 9.19539 2.22981 9.10597 2.29574 9.04004C2.36167 8.97411 2.45109 8.93707 2.54433 8.93707H10.9655C11.0588 8.93707 11.1482 8.97411 11.2141 9.04004C11.28 9.10597 11.3171 9.19539 11.3171 9.28863ZM11.3171 12.0209C11.3171 12.1142 11.28 12.2036 11.2141 12.2695C11.1482 12.3355 11.0588 12.3725 10.9655 12.3725H2.54433C2.45109 12.3725 2.36167 12.3355 2.29574 12.2695C2.22981 12.2036 2.19277 12.1142 2.19277 12.0209C2.19277 11.9277 2.22981 11.8383 2.29574 11.7723C2.36167 11.7064 2.45109 11.6694 2.54433 11.6694H10.9655C11.0588 11.6694 11.1482 11.7064 11.2141 11.7723C11.28 11.8383 11.3171 11.9277 11.3171 12.0209ZM11.3171 14.7532C11.3171 14.8465 11.28 14.9359 11.2141 15.0018C11.1482 15.0677 11.0588 15.1048 10.9655 15.1048H2.54433C2.45109 15.1048 2.36167 15.0677 2.29574 15.0018C2.22981 14.9359 2.19277 14.8465 2.19277 14.7532C2.19277 14.66 2.22981 14.5706 2.29574 14.5046C2.36167 14.4387 2.45109 14.4017 2.54433 14.4017H10.9655C11.0588 14.4017 11.1482 14.4387 11.2141 14.5046C11.28 14.5706 11.3171 14.66 11.3171 14.7532ZM2.61162 4.81103H6.16057C6.25381 4.81103 6.34323 4.77399 6.40916 4.70806C6.47509 4.64213 6.51213 4.5527 6.51213 4.45947V3.3641C6.51213 3.27086 6.47509 3.18144 6.40916 3.11551C6.34323 3.04958 6.25381 3.01254 6.16057 3.01254H2.61162C2.51838 3.01254 2.42896 3.04958 2.36303 3.11551C2.29709 3.18144 2.26005 3.27086 2.26005 3.3641V4.45947C2.26005 4.5527 2.29709 4.64213 2.36303 4.70806C2.42896 4.77399 2.51838 4.81103 2.61162 4.81103ZM2.96318 3.71566H5.80901V4.1079H2.96318V3.71566Z" fill="#7C8798"/>
</svg>
