<svg width="15" height="9" viewBox="0 0 15 9" fill="none" xmlns="http://www.w3.org/2000/svg">
<path d="M14.7254 5.30338L11.4038 8.625C11.2207 8.80807 10.9808 8.8996 10.7409 8.8996C10.5009 8.8996 10.261 8.80807 10.0779 8.625C9.71185 8.25888 9.71185 7.66529 10.0779 7.29917L11.7992 5.57798H0.9375C0.419736 5.57798 0 5.15824 0 4.64048C0 4.12271 0.419736 3.70298 0.9375 3.70298H11.7992L10.0779 1.98179C9.71185 1.61566 9.71185 1.02208 10.0779 0.655955C10.4441 0.289832 11.0377 0.289832 11.4038 0.655955L14.7254 3.97758C15.0915 4.34367 15.0915 4.93728 14.7254 5.30338Z" fill="#030303"/>
</svg>
