<svg width="30" height="30" viewBox="0 0 30 30" fill="none" xmlns="http://www.w3.org/2000/svg">
<g id="Frame">
<g id="Group">
<path id="Vector" d="M22.9688 9.66797H24.7266V3.51564H22.9688V9.66797Z" fill="#B9D8DD"/>
<path id="Vector_2" d="M21.2109 14.9414H22.9687V9.96095L21.2109 10.5469V14.9414Z" fill="#B9D8DD"/>
<path id="Vector_3" d="M24.7266 9.96095V14.9414H26.4844V10.5469L24.7266 9.96095Z" fill="#9CB5BB"/>
<g id="Clip path group">
<mask id="mask0_36_1943" style="mask-type:luminance" maskUnits="userSpaceOnUse" x="0" y="0" width="30" height="30">
<g id="a">
<path id="Vector_4" d="M0 9.15527e-05H29.9999V30H0V9.15527e-05Z" fill="white"/>
</g>
</mask>
<g mask="url(#mask0_36_1943)">
<g id="Group_2">
<path id="Vector_5" d="M23.8477 7.91016L24.7266 10.5469H26.4844C26.4844 9.09065 25.3039 7.91016 23.8477 7.91016Z" fill="#292C32"/>
<path id="Vector_6" d="M23.8476 7.91016C22.3914 7.91016 21.2109 9.09065 21.2109 10.5469H24.7266C24.7266 9.09065 24.333 7.91016 23.8476 7.91016Z" fill="#464E54"/>
<path id="Vector_7" d="M24.7266 2.63673H22.9688V5.27344H24.7266C25.4546 5.27344 26.0449 4.68317 26.0449 3.95508C26.0449 3.22694 25.4546 2.63673 24.7266 2.63673Z" fill="#FF852B"/>
<path id="Vector_8" d="M24.2871 3.95508C24.2871 3.22694 23.6968 2.63673 22.9687 2.63673H10.4004V5.27344H22.9687C23.6968 5.27344 24.2871 4.68317 24.2871 3.95508Z" fill="#FFA433"/>
<path id="Vector_9" d="M10.1074 11.9825C9.81293 11.9825 9.51895 12.007 9.22852 12.0558L13.623 22.5293H15.3808V17.2559C15.3808 14.3434 13.0199 11.9825 10.1074 11.9825Z" fill="#FF6523"/>
<path id="Vector_10" d="M9.2285 12.0558C6.73447 12.4742 4.83398 14.6429 4.83398 17.2559V22.5293H13.623V17.2559C13.623 14.6429 11.7225 12.4742 9.2285 12.0558Z" fill="#FF852B"/>
<path id="Vector_11" d="M8.34961 17.2559H13.623V3.95512H8.34961V17.2559Z" fill="#FF6523"/>
<path id="Vector_12" d="M6.5918 17.2559H11.8652V3.95512H6.5918V17.2559Z" fill="#FF852B"/>
<path id="Vector_13" d="M13.623 17.2559C13.623 19.1975 12.049 20.7715 10.1074 20.7715C8.1658 20.7715 6.5918 19.1975 6.5918 17.2559C6.5918 15.3143 8.1658 13.7403 10.1074 13.7403C12.049 13.7403 13.623 15.3143 13.623 17.2559Z" fill="#B9D8DD"/>
<path id="Vector_14" d="M11.8652 17.2559C11.8652 18.2267 11.0783 19.0137 10.1074 19.0137C9.13658 19.0137 8.34961 18.2267 8.34961 17.2559C8.34961 16.285 9.13658 15.4981 10.1074 15.4981C11.0783 15.4981 11.8652 16.285 11.8652 17.2559Z" fill="#637176"/>
<path id="Vector_15" d="M13.623 3.95509C13.623 5.8967 12.049 7.4707 10.1074 7.4707C8.1658 7.4707 6.5918 5.8967 6.5918 3.95509C6.5918 2.01347 8.1658 0.439474 10.1074 0.439474C12.049 0.439474 13.623 2.01347 13.623 3.95509Z" fill="#B9D8DD"/>
<path id="Vector_16" d="M11.8652 3.95508C11.8652 4.92592 11.0783 5.71289 10.1074 5.71289C9.13658 5.71289 8.34961 4.92592 8.34961 3.95508C8.34961 2.98425 9.13658 2.19728 10.1074 2.19728C11.0783 2.19728 11.8652 2.98425 11.8652 3.95508Z" fill="#637176"/>
<path id="Vector_17" d="M10.5469 17.2559C10.5469 17.3724 10.5006 17.4842 10.4182 17.5666C10.3357 17.649 10.224 17.6953 10.1074 17.6953C9.99087 17.6953 9.87909 17.649 9.79668 17.5666C9.71427 17.4842 9.66797 17.3724 9.66797 17.2559C9.66797 17.1393 9.71427 17.0275 9.79668 16.9451C9.87909 16.8627 9.99087 16.8164 10.1074 16.8164C10.224 16.8164 10.3357 16.8627 10.4182 16.9451C10.5006 17.0275 10.5469 17.1393 10.5469 17.2559Z" fill="black"/>
<path id="Vector_18" d="M10.5469 3.95508C10.5469 4.07163 10.5006 4.18341 10.4182 4.26582C10.3357 4.34823 10.224 4.39453 10.1074 4.39453C9.99087 4.39453 9.87909 4.34823 9.79668 4.26582C9.71427 4.18341 9.66797 4.07163 9.66797 3.95508C9.66797 3.83853 9.71427 3.72675 9.79668 3.64434C9.87909 3.56193 9.99087 3.51563 10.1074 3.51563C10.224 3.51563 10.3357 3.56193 10.4182 3.64434C10.5006 3.72675 10.5469 3.83853 10.5469 3.95508Z" fill="black"/>
<path id="Vector_19" d="M15.3809 26.0449H13.623V28.9746H17.1387V27.8027L15.3809 26.0449Z" fill="#FF6523"/>
<path id="Vector_20" d="M13.623 26.0449H4.83398L3.07617 27.8027V28.9746H15.3808V27.8027L13.623 26.0449Z" fill="#FF852B"/>
<path id="Vector_21" d="M18.0176 27.8027L14.502 28.6816L18.0176 29.5605H19.7754V27.8027H18.0176Z" fill="#292C32"/>
<path id="Vector_22" d="M0.439453 29.5605H18.0175V27.8027H0.439453V29.5605Z" fill="#464E54"/>
</g>
</g>
</g>
</g>
</g>
</svg>
