<svg width="20" height="20" viewBox="0 0 20 20" fill="none" xmlns="http://www.w3.org/2000/svg">
<g id="Frame">
<rect width="20" height="20" fill="#95C099"/>
<g id="Group">
<path id="Vector" d="M19.3024 8.43157C19.7163 8.13231 19.9752 7.66544 19.9752 7.15395V5.49856C19.9752 5.0295 19.5953 4.64966 19.1263 4.64966H5.04688V15.3503H19.1263C19.5953 15.3503 19.9752 14.9704 19.9752 14.5014V12.846C19.9752 12.3345 19.7163 11.8676 19.3024 11.5684C18.878 11.2627 18.5893 10.6727 18.5893 9.99997C18.5893 9.3272 18.878 8.7372 19.3024 8.43157ZM16.1896 10.293C16.1898 10.4744 16.1231 10.6494 16.0022 10.7846C15.8814 10.9199 15.715 11.0058 15.5347 11.026L15.2147 11.0629C15.1631 11.2203 15.0996 11.3736 15.0249 11.5215L15.2268 11.7748C15.4597 12.0715 15.435 12.4924 15.1712 12.7565L14.754 13.1736C14.6856 13.2424 14.6042 13.2969 14.5146 13.334C14.425 13.3712 14.3289 13.3901 14.2319 13.3899C14.0671 13.3899 13.9046 13.3336 13.7745 13.2313L13.5189 13.0275C13.3711 13.1023 13.2178 13.1658 13.0603 13.2174L13.0234 13.5383C12.9813 13.9107 12.6663 14.1923 12.2903 14.1923H11.7042C11.5228 14.1924 11.3478 14.1257 11.2126 14.0048C11.0774 13.884 10.9915 13.7176 10.9713 13.5374L10.9345 13.2174C10.7769 13.1658 10.6235 13.1023 10.4756 13.0275L10.2223 13.2295C10.09 13.3336 9.9275 13.3899 9.7627 13.3899C9.66567 13.3902 9.56955 13.3712 9.47992 13.334C9.39028 13.2969 9.30891 13.2423 9.24051 13.1735L8.82371 12.7566C8.55957 12.4925 8.53469 12.0715 8.76578 11.7773L8.96973 11.5216C8.89495 11.3737 8.83149 11.2204 8.77988 11.0629L8.45895 11.026C8.08641 10.9838 7.80496 10.6687 7.80496 10.2931V9.70692C7.80496 9.33126 8.08641 9.01626 8.45969 8.97396L8.77988 8.93708C8.83149 8.77961 8.89495 8.62629 8.96973 8.47841L8.76777 8.22513C8.53473 7.92845 8.55957 7.50739 8.82375 7.24337L9.24074 6.82638C9.30911 6.75758 9.39046 6.70304 9.48006 6.66592C9.56966 6.62879 9.66574 6.60981 9.76273 6.61009C9.92762 6.61009 10.09 6.66638 10.22 6.76864L10.4756 6.97247C10.6235 6.89763 10.7769 6.83416 10.9345 6.78263L10.9713 6.46149C11.0134 6.08927 11.3284 5.8077 11.7042 5.8077H12.2903C12.4717 5.80755 12.6467 5.87427 12.782 5.9951C12.9172 6.11593 13.0032 6.28239 13.0234 6.46263L13.0603 6.78263C13.2178 6.8342 13.3711 6.89766 13.5189 6.97247L13.7722 6.7704C13.9046 6.66638 14.0671 6.61009 14.2319 6.61009C14.429 6.61009 14.6143 6.68677 14.7538 6.82614L15.171 7.24337C15.4351 7.50751 15.4597 7.92845 15.2288 8.22267L15.0249 8.47833C15.0996 8.62626 15.1631 8.77961 15.2147 8.93708L15.5358 8.97396C15.9082 9.01614 16.1897 9.33126 16.1897 9.70692L16.1896 10.293Z" fill="white"/>
<path id="Vector_2" d="M15.4871 9.39567L14.8828 9.32618C14.8103 9.01196 14.6864 8.70978 14.5141 8.43786L14.8948 7.96044C14.9426 7.90006 14.9666 7.82423 14.9621 7.74736C14.9577 7.67049 14.9251 7.59793 14.8707 7.54349L14.4537 7.12649C14.3992 7.07203 14.3267 7.03948 14.2498 7.03502C14.1729 7.03056 14.0971 7.05451 14.0367 7.10231L13.5593 7.48302C13.2873 7.31079 12.9852 7.18692 12.6709 7.11442L12.6014 6.51013C12.5932 6.43348 12.5568 6.36262 12.4993 6.31126C12.4418 6.25991 12.3673 6.23171 12.2902 6.23212H11.7041C11.627 6.2317 11.5525 6.2599 11.495 6.31126C11.4375 6.36262 11.4011 6.43348 11.3929 6.51013L11.3234 7.11442C11.0091 7.18692 10.707 7.31083 10.435 7.48306L9.95762 7.10231C9.89724 7.05451 9.8214 7.03056 9.74452 7.03502C9.66764 7.03948 9.59507 7.07203 9.54062 7.12649L9.12363 7.54345C9.06918 7.5979 9.03663 7.67046 9.03217 7.74734C9.02772 7.82422 9.05166 7.90006 9.09945 7.96044L9.48016 8.43782C9.30793 8.70978 9.18406 9.01192 9.11152 9.32618L8.50723 9.39567C8.43058 9.40393 8.35972 9.44033 8.30837 9.49783C8.25702 9.55533 8.22883 9.62984 8.22926 9.70692V10.2931C8.22884 10.3702 8.25704 10.4447 8.30839 10.5022C8.35974 10.5597 8.43059 10.596 8.50723 10.6043L9.11152 10.6738C9.18402 10.988 9.30793 11.2902 9.48016 11.5621L9.09945 12.0395C9.05166 12.0999 9.02772 12.1758 9.03217 12.2526C9.03663 12.3295 9.06918 12.4021 9.12363 12.4565L9.54062 12.8735C9.59508 12.928 9.66764 12.9605 9.74453 12.965C9.82141 12.9694 9.89724 12.9455 9.95762 12.8977L10.435 12.5169C10.707 12.6891 11.0091 12.8131 11.3234 12.8856L11.3929 13.4899C11.4011 13.5665 11.4376 13.6374 11.495 13.6887C11.5525 13.7401 11.6271 13.7683 11.7041 13.7679H12.2903C12.3674 13.7683 12.4419 13.7401 12.4994 13.6887C12.5569 13.6374 12.5933 13.5665 12.6015 13.4899L12.671 12.8856C12.9853 12.8131 13.2874 12.6891 13.5593 12.5169L14.0368 12.8977C14.0971 12.9455 14.173 12.9694 14.2499 12.9649C14.3267 12.9605 14.3993 12.9279 14.4537 12.8735L14.8707 12.4565C14.9252 12.402 14.9577 12.3295 14.9622 12.2526C14.9667 12.1757 14.9427 12.0999 14.8949 12.0395L14.5142 11.5621C14.6864 11.2902 14.8103 10.988 14.8829 10.6738L15.4871 10.6043C15.5638 10.596 15.6347 10.5596 15.686 10.5021C15.7373 10.4446 15.7655 10.3701 15.7651 10.293V9.70685C15.7655 9.62976 15.7373 9.55528 15.6859 9.4978C15.6346 9.44032 15.5637 9.40393 15.4871 9.39567ZM13.1152 11.1169C12.4965 11.7356 11.4958 11.7356 10.8771 11.1169C10.2584 10.5024 10.2584 9.49755 10.8771 8.88302C11.4958 8.26435 12.4965 8.26435 13.1152 8.88302C13.7297 9.49751 13.7297 10.5024 13.1152 11.1169ZM0.0253906 5.49856V7.15438C0.0253906 7.66493 0.284336 8.13169 0.698086 8.43079C1.12309 8.73806 1.41125 9.32673 1.41125 9.99997C1.41125 10.6732 1.12309 11.2619 0.698086 11.5691C0.284336 11.8683 0.0253906 12.335 0.0253906 12.8456V14.5014C0.0253906 14.9703 0.405469 15.3503 0.874297 15.3503H4.62227V4.64966H0.874297C0.405469 4.64966 0.0253906 5.0297 0.0253906 5.49856ZM2.1334 5.80091H3.70945C3.78157 5.80091 3.85074 5.82956 3.90174 5.88056C3.95274 5.93155 3.98139 6.00072 3.98139 6.07284C3.98139 6.14496 3.95274 6.21413 3.90174 6.26513C3.85074 6.31613 3.78157 6.34478 3.70945 6.34478H2.1334C2.09769 6.34478 2.06233 6.33775 2.02934 6.32409C1.99634 6.31042 1.96637 6.2904 1.94111 6.26514C1.91586 6.23989 1.89584 6.20992 1.88217 6.17692C1.86851 6.14393 1.86148 6.10857 1.86148 6.07286C1.86148 6.03715 1.86851 6.00179 1.88217 5.96879C1.89583 5.9358 1.91586 5.90582 1.94111 5.88056C1.96636 5.85531 1.99634 5.83528 2.02933 5.82161C2.06233 5.80794 2.09769 5.80091 2.1334 5.80091ZM2.1334 7.10997H3.70945C3.78157 7.10997 3.85074 7.13862 3.90174 7.18962C3.95274 7.24062 3.98139 7.30978 3.98139 7.3819C3.98139 7.45403 3.95274 7.52319 3.90174 7.57419C3.85074 7.62519 3.78157 7.65384 3.70945 7.65384H2.1334C2.09769 7.65384 2.06233 7.64681 2.02934 7.63315C1.99634 7.61949 1.96637 7.59946 1.94111 7.57421C1.91586 7.54896 1.89584 7.51898 1.88217 7.48599C1.86851 7.45299 1.86148 7.41763 1.86148 7.38192C1.86147 7.34621 1.8685 7.31085 1.88216 7.27785C1.89582 7.24485 1.91585 7.21487 1.9411 7.18961C1.96635 7.16436 1.99633 7.14433 2.02933 7.13066C2.06232 7.117 2.09769 7.10997 2.1334 7.10997ZM2.1334 8.41903H3.70945C3.78157 8.41903 3.85073 8.44768 3.90173 8.49868C3.95272 8.54967 3.98137 8.61883 3.98137 8.69095C3.98137 8.76306 3.95272 8.83223 3.90173 8.88322C3.85073 8.93421 3.78157 8.96286 3.70945 8.96286H2.1334C2.09769 8.96287 2.06233 8.95584 2.02934 8.94217C1.99634 8.92851 1.96637 8.90848 1.94111 8.88323C1.91586 8.85798 1.89584 8.828 1.88217 8.79501C1.86851 8.76202 1.86148 8.72666 1.86148 8.69095C1.86148 8.65524 1.86851 8.61988 1.88217 8.58688C1.89584 8.55389 1.91586 8.52391 1.94111 8.49866C1.96637 8.47341 1.99634 8.45338 2.02934 8.43972C2.06233 8.42606 2.09769 8.41903 2.1334 8.41903ZM2.1334 9.72806H3.70945C3.78157 9.72806 3.85073 9.7567 3.90173 9.8077C3.95272 9.85869 3.98137 9.92785 3.98137 9.99997C3.98137 10.0721 3.95272 10.1412 3.90173 10.1922C3.85073 10.2432 3.78157 10.2719 3.70945 10.2719H2.1334C1.9832 10.2719 1.86148 10.1502 1.86148 9.99997C1.86148 9.84978 1.9832 9.72806 2.1334 9.72806ZM2.1334 11.0371H3.70945C3.78157 11.0371 3.85073 11.0657 3.90173 11.1167C3.95272 11.1677 3.98137 11.2369 3.98137 11.309C3.98137 11.3811 3.95272 11.4503 3.90173 11.5013C3.85073 11.5523 3.78157 11.5809 3.70945 11.5809H2.1334C1.9832 11.5809 1.86148 11.4592 1.86148 11.309C1.86148 11.1588 1.9832 11.0371 2.1334 11.0371ZM2.1334 12.3461H3.70945C3.78157 12.3461 3.85073 12.3748 3.90173 12.4257C3.95272 12.4767 3.98137 12.5459 3.98137 12.618C3.98137 12.6901 3.95272 12.7593 3.90173 12.8103C3.85073 12.8613 3.78157 12.8899 3.70945 12.8899H2.1334C2.06128 12.8899 1.99212 12.8613 1.94113 12.8103C1.89013 12.7593 1.86148 12.6901 1.86148 12.618C1.86148 12.5459 1.89013 12.4767 1.94113 12.4257C1.99212 12.3748 2.06128 12.3461 2.1334 12.3461ZM2.1334 13.6552H3.70945C3.78157 13.6552 3.85073 13.6838 3.90173 13.7348C3.95272 13.7858 3.98137 13.855 3.98137 13.9271C3.98137 13.9992 3.95272 14.0684 3.90173 14.1194C3.85073 14.1703 3.78157 14.199 3.70945 14.199H2.1334C1.9832 14.199 1.86148 14.0773 1.86148 13.9271C1.86148 13.7769 1.9832 13.6552 2.1334 13.6552Z" fill="white"/>
</g>
</g>
</svg>
