<svg width="30" height="30" viewBox="0 0 30 30" fill="none" xmlns="http://www.w3.org/2000/svg">
<g id="Frame" clip-path="url(#clip0_36_1913)">
<g id="Group">
<path id="Vector" d="M28.7946 14.8614H26.5899C26.3706 14.031 26.0402 13.234 25.6077 12.492L27.1673 10.9325C27.4607 10.6391 27.4607 10.1633 27.1673 9.86991L24.7541 7.45673C24.4606 7.16329 23.9849 7.16329 23.6915 7.45673L22.132 9.01626C21.39 8.58375 20.593 8.25338 19.7626 8.03411V5.82929C19.7626 5.41433 19.4262 5.07788 19.0112 5.07788H15.5984C15.1834 5.07788 14.847 5.41427 14.847 5.82929V8.03405C14.0166 8.25336 13.2196 8.58372 12.4776 9.0162L10.9181 7.45667C10.6247 7.16323 10.1489 7.16323 9.85551 7.45667L7.44232 9.86985C7.14889 10.1633 7.14889 10.6391 7.44232 10.9325L9.00186 12.492C8.56938 13.234 8.23901 14.031 8.01971 14.8613H5.81488C5.39992 14.8613 5.06348 15.1977 5.06348 15.6127V19.0255C5.06348 19.4404 5.39986 19.7768 5.81488 19.7768H8.01965C8.23896 20.6072 8.56932 21.4042 9.0018 22.1462L7.44227 23.7057C7.14883 23.9992 7.14883 24.4749 7.44227 24.7683L9.85545 27.1815C10.1489 27.4749 10.6246 27.4749 10.918 27.1815L12.4776 25.622C13.2196 26.0545 14.0166 26.3848 14.8469 26.6041V28.8089C14.8469 29.2239 15.1833 29.5603 15.5983 29.5603H19.0111C19.4261 29.5603 19.7625 29.2239 19.7625 28.8089V26.6041C20.5929 26.3848 21.3899 26.0544 22.1319 25.622L23.6914 27.1815C23.9849 27.4749 24.4606 27.4749 24.754 27.1815L27.1672 24.7683C27.4606 24.4749 27.4606 23.9991 27.1672 23.7057L25.6077 22.1462C26.0402 21.4042 26.3705 20.6072 26.5898 19.7768H28.7946C29.2096 19.7768 29.546 19.4404 29.546 19.0255V15.6128C29.5461 15.1978 29.2096 14.8614 28.7946 14.8614ZM17.3048 23.8937C13.6738 23.8937 10.7303 20.9502 10.7303 17.3192C10.7303 13.6882 13.6738 10.7447 17.3048 10.7447C20.9358 10.7447 23.8793 13.6882 23.8793 17.3192C23.8793 20.9502 20.9358 23.8937 17.3048 23.8937Z" fill="#838383"/>
<path id="Vector_2" d="M10.7299 17.3192C10.7299 13.9867 13.2095 11.2336 16.4243 10.8035C16.1326 10.7644 15.8386 10.7447 15.5442 10.7446C11.9132 10.7446 8.96973 13.6881 8.96973 17.3191C8.96973 20.9501 11.9132 23.8937 15.5442 23.8937C15.8427 23.8937 16.1364 23.8734 16.4243 23.8348C13.2095 23.4048 10.7299 20.6518 10.7299 17.3192Z" fill="#838383"/>
<path id="Vector_3" d="M18.0024 5.82929V7.34147C18.0024 7.72397 18.3125 8.03411 18.695 8.03411H19.7625V5.82929C19.7625 5.41433 19.4262 5.07788 19.0111 5.07788H17.251C17.666 5.07794 18.0024 5.41433 18.0024 5.82929ZM25.4071 9.86991C25.7005 10.1633 25.7005 10.6391 25.4071 10.9325L24.1274 12.2123C23.9654 12.3742 23.9257 12.6233 24.0331 12.8256C24.3163 13.3594 24.5482 13.9189 24.7256 14.4966C24.7925 14.7144 24.9959 14.8614 25.2237 14.8614H26.5898C26.3705 14.031 26.0402 13.234 25.6077 12.492L27.1672 10.9325C27.4606 10.6391 27.4606 10.1633 27.1672 9.86991L24.754 7.45673C24.4606 7.16329 23.9849 7.16329 23.6914 7.45673L23.3427 7.80548L25.4071 9.86991ZM28.7946 14.8614H27.0345C27.4495 14.8614 27.7858 15.1978 27.7858 15.6127V19.0255C27.7858 19.4405 27.4495 19.7769 27.0344 19.7769H28.7946C29.2096 19.7769 29.546 19.4406 29.546 19.0256V15.6128C29.5461 15.1978 29.2096 14.8614 28.7946 14.8614ZM25.6077 22.1463C26.0402 21.4043 26.3705 20.6073 26.5898 19.7769H25.2237C24.9959 19.7769 24.7925 19.924 24.7255 20.1417C24.5481 20.7194 24.3163 21.2789 24.033 21.8127C23.9257 22.015 23.9654 22.2641 24.1273 22.4261L25.4071 23.7058C25.7005 23.9993 25.7005 24.475 25.4071 24.7684L23.3426 26.8329L23.6914 27.1816C23.9848 27.475 24.4605 27.475 24.754 27.1816L27.1671 24.7684C27.4606 24.475 27.4606 23.9992 27.1671 23.7058L25.6077 22.1463ZM18.0024 27.2969V28.8091C18.0024 29.2241 17.666 29.5605 17.251 29.5605H19.0111C19.4261 29.5605 19.7625 29.2241 19.7625 28.8091V26.6043H18.695C18.3125 26.6043 18.0024 26.9144 18.0024 27.2969Z" fill="#696969"/>
<path id="Vector_4" d="M13.6732 20.5102C13.2548 20.0918 13.2548 19.4134 13.6732 18.995L16.3485 16.3197C16.448 16.2202 16.5829 16.1643 16.7236 16.1643C16.8643 16.1643 16.9993 16.2202 17.0988 16.3197L17.8637 17.0846C17.9632 17.1841 18.0191 17.3191 18.0191 17.4598C18.0191 17.6005 17.9632 17.7354 17.8637 17.8349L15.1884 20.5102C14.77 20.9286 14.0916 20.9286 13.6732 20.5102Z" fill="#FD4755"/>
<path id="Vector_5" d="M17.8635 17.0846L17.0986 16.3197C16.9991 16.2202 16.8641 16.1643 16.7234 16.1643C16.5827 16.1643 16.4478 16.2202 16.3483 16.3197L16.013 16.655C16.2067 16.5716 16.4398 16.6086 16.598 16.7668L16.89 17.0588C16.9895 17.1583 17.0454 17.2932 17.0454 17.4339C17.0454 17.5746 16.9895 17.7096 16.89 17.8091L14.2147 20.4844C14.1285 20.5703 14.0281 20.6409 13.918 20.6929C14.3245 20.9148 14.8441 20.8543 15.1882 20.5102L17.8634 17.8349C17.9127 17.7857 17.9518 17.7272 17.9785 17.6628C18.0051 17.5984 18.0189 17.5295 18.0189 17.4598C18.0189 17.3901 18.0052 17.3211 17.9785 17.2568C17.9518 17.1924 17.9128 17.1339 17.8635 17.0846Z" fill="#FB2B3A"/>
<path id="Vector_6" d="M14.4685 15.2051L13.9131 14.6498C13.8636 14.6003 13.8243 14.5414 13.7974 14.4767C13.7706 14.412 13.7568 14.3426 13.7568 14.2726C13.7568 14.2025 13.7706 14.1331 13.7974 14.0684C13.8243 14.0037 13.8636 13.9449 13.9131 13.8953L14.8145 12.9939C14.9193 12.8892 15.0501 12.8142 15.1934 12.7767C15.3367 12.7392 15.4875 12.7405 15.6301 12.7806L16.5963 13.0519C16.8688 13.1284 16.9581 13.4699 16.758 13.6701L15.223 15.2051C15.1734 15.2547 15.1146 15.294 15.0499 15.3208C14.9852 15.3476 14.9158 15.3614 14.8457 15.3614C14.7756 15.3614 14.7063 15.3476 14.6415 15.3208C14.5768 15.294 14.518 15.2547 14.4685 15.2051Z" fill="#6C7FD8"/>
<path id="Vector_7" d="M16.5959 13.0521L15.6297 12.7808C15.4871 12.7408 15.3363 12.7394 15.193 12.7769C15.0496 12.8144 14.9189 12.8894 14.8141 12.9942L14.6964 13.1118L15.3526 13.2961C15.6251 13.3726 15.7145 13.7142 15.5144 13.9143L14.3457 15.083L14.4681 15.2054C14.5176 15.2549 14.5765 15.2942 14.6412 15.321C14.7059 15.3479 14.7753 15.3617 14.8453 15.3617C14.9154 15.3617 14.9848 15.3479 15.0495 15.321C15.1142 15.2942 15.173 15.2549 15.2226 15.2054L16.7576 13.6703C16.9577 13.4702 16.8684 13.1286 16.5959 13.0521Z" fill="#4F66D0"/>
<path id="Vector_8" d="M6.67688 12.885C10.1136 12.885 12.8996 10.099 12.8996 6.66223C12.8996 3.22548 10.1136 0.439453 6.67688 0.439453C3.24013 0.439453 0.454102 3.22548 0.454102 6.66223C0.454102 10.099 3.24013 12.885 6.67688 12.885Z" fill="#FFD15B"/>
<path id="Vector_9" d="M6.67695 0.439453C6.37818 0.439453 6.08445 0.460957 5.79688 0.50168C8.81674 0.929238 11.1396 3.52424 11.1396 6.66217C11.1396 9.8001 8.8168 12.3951 5.79688 12.8227C6.08445 12.8634 6.37818 12.8849 6.67695 12.8849C10.1137 12.8849 12.8997 10.0989 12.8997 6.66211C12.8997 3.22535 10.1137 0.439453 6.67695 0.439453Z" fill="#FFC344"/>
<path id="Vector_10" d="M8.91346 5.92386H7.06535V2.53123C7.06535 2.26328 6.70957 2.16988 6.57791 2.4032L4.094 6.8064C3.94412 7.07207 4.13607 7.40072 4.44111 7.40072H6.28922V10.7934C6.28922 11.0613 6.645 11.1547 6.77666 10.9214L9.26057 6.51818C9.41039 6.25252 9.21844 5.92386 8.91346 5.92386Z" fill="#FD4755"/>
<path id="Vector_11" d="M6.06221 4.13699V5.57816C6.06221 5.66985 6.09863 5.75778 6.16346 5.82261C6.22829 5.88744 6.31622 5.92386 6.40791 5.92386H7.06486V2.53123C7.06486 2.26328 6.70908 2.16988 6.57742 2.4032L5.74316 3.88217C5.89176 3.84988 6.06221 3.95148 6.06221 4.13699ZM8.91303 5.92386H7.91037C8.21535 5.92386 8.4073 6.25252 8.25748 6.51818L6.71699 9.25808C6.61867 9.43234 6.39555 9.42425 6.28873 9.29752V10.7934C6.28873 11.0613 6.64451 11.1547 6.77617 10.9214L9.26008 6.51818C9.40996 6.25252 9.21801 5.92386 8.91303 5.92386Z" fill="#FB2B3A"/>
<path id="Vector_12" d="M16.332 23.8222C13.1624 23.352 10.7305 20.6196 10.7305 17.3191C10.7305 13.6881 13.674 10.7446 17.305 10.7446C20.936 10.7446 23.8795 13.6881 23.8795 17.3191C23.8795 20.5815 21.5033 23.2889 18.3873 23.805" stroke="black" stroke-width="0.878906" stroke-miterlimit="10" stroke-linecap="round" stroke-linejoin="round"/>
<path id="Vector_13" d="M17.4824 16.7007L20.5807 13.6024M15.6048 14.8232L21.2025 20.4209M13.6732 20.51C13.2548 20.0916 13.2548 19.4132 13.6732 18.9947L16.3485 16.3195C16.448 16.22 16.5829 16.1641 16.7236 16.1641C16.8643 16.1641 16.9993 16.22 17.0988 16.3195L17.8637 17.0844C17.9632 17.1839 18.0191 17.3189 18.0191 17.4596C18.0191 17.6003 17.9632 17.7352 17.8637 17.8347L15.1884 20.51C14.77 20.9284 14.0916 20.9284 13.6732 20.51ZM14.4684 15.2051L13.9131 14.6498C13.8635 14.6003 13.8242 14.5414 13.7974 14.4767C13.7706 14.412 13.7568 14.3426 13.7568 14.2726C13.7568 14.2025 13.7706 14.1331 13.7974 14.0684C13.8242 14.0037 13.8635 13.9449 13.9131 13.8953L14.8145 12.9939C14.9192 12.8892 15.05 12.8142 15.1934 12.7767C15.3367 12.7392 15.4875 12.7405 15.6301 12.7806L16.5963 13.0519C16.8687 13.1284 16.9581 13.4699 16.758 13.6701L15.2229 15.2051C15.1734 15.2547 15.1146 15.294 15.0499 15.3208C14.9851 15.3476 14.9157 15.3614 14.8457 15.3614C14.7756 15.3614 14.7062 15.3476 14.6415 15.3208C14.5768 15.294 14.518 15.2547 14.4684 15.2051Z" stroke="black" stroke-width="0.878906" stroke-miterlimit="10" stroke-linecap="round" stroke-linejoin="round"/>
<path id="Vector_14" d="M12.4498 8.98818L12.4779 9.01631C13.2115 8.58857 14.0066 8.25576 14.8475 8.03428V5.82939C14.8475 5.41455 15.1838 5.07764 15.5986 5.07764H19.0111C19.4266 5.07764 19.7629 5.41455 19.7629 5.82939V8.03428C20.6031 8.25576 21.3982 8.58857 22.1318 9.01631L23.6916 7.45654C23.9852 7.16299 24.4609 7.16299 24.7545 7.45654L27.1674 9.87002C27.4609 10.1636 27.4609 10.6394 27.1674 10.9323L25.6076 12.4921C26.0404 13.2341 26.3709 14.0311 26.5902 14.8616H28.7951C29.21 14.8616 29.5463 15.1979 29.5463 15.6128V19.0253C29.5463 19.4407 29.21 19.7771 28.7951 19.7771H26.5902C26.3709 20.6074 26.0404 21.4042 25.6076 22.146L27.1674 23.7058C27.4609 23.9993 27.4609 24.4751 27.1674 24.7687L24.7545 27.1815C24.4609 27.4751 23.9852 27.4751 23.6916 27.1815L22.1318 25.6224C21.3899 26.0546 20.5931 26.3849 19.7629 26.6044V28.8093C19.7629 29.2241 19.4266 29.5604 19.0111 29.5604H15.5986C15.1838 29.5604 14.8475 29.2241 14.8475 28.8093V26.6044C14.0171 26.385 13.2201 26.0547 12.4779 25.6224L10.9182 27.1815C10.6246 27.4751 10.1488 27.4751 9.85586 27.1815L7.44238 24.7687C7.14883 24.4751 7.14883 23.9993 7.44238 23.7058L9.00215 22.1466C8.57441 21.413 8.2416 20.6173 8.02012 19.7771H5.81523C5.3998 19.7771 5.06348 19.4407 5.06348 19.0253V15.6128C5.06348 15.1979 5.3998 14.8616 5.81523 14.8616H8.02012C8.2416 14.0208 8.57441 13.2257 9.00215 12.4921L8.96231 12.4522" stroke="black" stroke-width="0.878906" stroke-miterlimit="10" stroke-linecap="round" stroke-linejoin="round"/>
<path id="Vector_15" d="M1.64631 10.3257C0.896543 9.29801 0.454102 8.0318 0.454102 6.66223C0.45416 3.22547 3.24018 0.439453 6.67688 0.439453C10.1136 0.439453 12.8996 3.22547 12.8996 6.66223C12.8996 10.099 10.1136 12.885 6.67688 12.885C5.35447 12.885 4.12846 12.4725 3.12041 11.7692" stroke="black" stroke-width="0.878906" stroke-miterlimit="10" stroke-linecap="round" stroke-linejoin="round"/>
<path id="Vector_16" d="M8.91346 5.92386H7.06535V2.53123C7.06535 2.26328 6.70957 2.16988 6.57791 2.4032L4.094 6.8064C3.94412 7.07207 4.13607 7.40072 4.44111 7.40072H6.28922V10.7934C6.28922 11.0613 6.645 11.1547 6.77666 10.9214L9.26057 6.51818C9.41039 6.25252 9.21844 5.92386 8.91346 5.92386Z" stroke="black" stroke-width="0.878906" stroke-miterlimit="10" stroke-linecap="round" stroke-linejoin="round"/>
</g>
</g>
<defs>
<clipPath id="clip0_36_1913">
<rect width="30" height="30" fill="white"/>
</clipPath>
</defs>
</svg>
